<?xml version="1.0" encoding="UTF-8" standalone="no"?>
<!-- Created with Inkscape (http://www.inkscape.org/) -->

<svg
   xmlns:dc="http://purl.org/dc/elements/1.1/"
   xmlns:cc="http://creativecommons.org/ns#"
   xmlns:rdf="http://www.w3.org/1999/02/22-rdf-syntax-ns#"
   xmlns:svg="http://www.w3.org/2000/svg"
   xmlns="http://www.w3.org/2000/svg"
   xmlns:xlink="http://www.w3.org/1999/xlink"
   xmlns:sodipodi="http://sodipodi.sourceforge.net/DTD/sodipodi-0.dtd"
   xmlns:inkscape="http://www.inkscape.org/namespaces/inkscape"
   width="14in"
   height="8.5in"
   viewBox="0 0 355.6 215.9"
   version="1.1"
   id="svg1277"
   inkscape:version="0.92.4 (5da689c313, 2019-01-14)"
   sodipodi:docname="widescreen-footer.svg">
  <defs
     id="defs1271">
    <linearGradient
       inkscape:collect="always"
       id="linearGradient2702">
      <stop
         style="stop-color:#27229b;stop-opacity:1"
         offset="0"
         id="stop2698" />
      <stop
         style="stop-color:#631e75;stop-opacity:1"
         offset="1"
         id="stop2700" />
    </linearGradient>
    <linearGradient
       inkscape:collect="always"
       xlink:href="#linearGradient2702"
       id="linearGradient2704"
       x1="0"
       y1="283.39288"
       x2="297.46725"
       y2="283.39288"
       gradientUnits="userSpaceOnUse"
       gradientTransform="matrix(1.1994917,0,0,0.10486346,0,266.1939)" />
  </defs>
  <sodipodi:namedview
     id="base"
     pagecolor="#ffffff"
     bordercolor="#666666"
     borderopacity="1.0"
     inkscape:pageopacity="0.0"
     inkscape:pageshadow="2"
     inkscape:zoom="0.7"
     inkscape:cx="775.25858"
     inkscape:cy="48.681558"
     inkscape:document-units="mm"
     inkscape:current-layer="g3154"
     showgrid="false"
     units="in"
     showguides="true"
     inkscape:guide-bbox="true"
     inkscape:window-width="1920"
     inkscape:window-height="1017"
     inkscape:window-x="-8"
     inkscape:window-y="34"
     inkscape:window-maximized="1" />
  <metadata
     id="metadata1274">
    <rdf:RDF>
      <cc:Work
         rdf:about="">
        <dc:format>image/svg+xml</dc:format>
        <dc:type
           rdf:resource="http://purl.org/dc/dcmitype/StillImage" />
        <dc:title />
      </cc:Work>
    </rdf:RDF>
  </metadata>
  <g
     inkscape:label="footer (fip)"
     inkscape:groupmode="layer"
     id="layer1"
     transform="translate(0,-81.1)"
     style="display:none"
     sodipodi:insensitive="true">
    <rect
       style="opacity:1;fill:#33333e;fill-opacity:1;stroke:none;stroke-width:4.99218178;stroke-miterlimit:4;stroke-dasharray:none;stroke-opacity:1"
       id="rect1824-9"
       width="356.80951"
       height="23.245541"
       x="0"
       y="274.13245"
       inkscape:export-xdpi="300"
       inkscape:export-ydpi="300"
       inkscape:export-filename="C:\Users\heardp\Desktop\footer-fip.png" />
    <rect
       style="opacity:1;fill:url(#linearGradient2704);fill-opacity:1;stroke:none;stroke-width:1.77329397;stroke-miterlimit:4;stroke-dasharray:none;stroke-opacity:1"
       id="rect1824"
       width="356.80951"
       height="2.9330566"
       x="0"
       y="294.44492"
       inkscape:export-xdpi="300"
       inkscape:export-ydpi="300"
       inkscape:export-filename="C:\Users\heardp\Desktop\footer-fip.png" />
    <g
       transform="matrix(0.26320956,0,0,0.26320956,15.012793,260.07938)"
       id="layer1-2"
       inkscape:label="Layer 1"
       inkscape:export-xdpi="300"
       inkscape:export-ydpi="300"
       inkscape:export-filename="C:\Users\heardp\Desktop\footer-fip.png">
      <path
         d="m 10.029682,101.37049 c 0,0 0,-15.861164 0,-15.861164 0,0 7.790826,0 7.790826,0 0,0 0,15.861164 0,15.861164 0,0 -7.790826,0 -7.790826,0 z"
         style="fill:#ffffff;fill-opacity:1;fill-rule:nonzero;stroke:none;stroke-width:1.3374356"
         id="path1423-9"
         inkscape:connector-curvature="0" />
      <path
         d="m 35.098778,101.37049 c 0,0 0,-15.861164 0,-15.861164 0,0 7.78821,0 7.78821,0 0,0 0,15.861164 0,15.861164 0,0 -7.78821,0 -7.78821,0 z"
         style="fill:#ffffff;fill-opacity:1;fill-rule:nonzero;stroke:none;stroke-width:1.3374356"
         id="path1425-5"
         inkscape:connector-curvature="0" />
      <path
         d="m 25.377534,88.805906 c 0,0 1.114106,-2.26412 1.114106,-2.26412 0,0 1.103644,2.18117 1.103644,2.18117 0.139893,0.22986 0.250974,0.21223 0.471468,0.10257 0,0 0.946917,-0.47018 0.946917,-0.47018 0,0 -0.616442,3.04776 -0.616442,3.04776 -0.129278,0.5982 0.211547,0.77255 0.579895,0.36766 0,0 1.354391,-1.44518 1.354391,-1.44518 0,0 0.357885,0.81891 0.357885,0.81891 0.12018,0.24818 0.30443,0.21223 0.543349,0.16586 0,0 1.398823,-0.29517 1.398823,-0.29517 0,0 -0.46889,1.76779 -0.46889,1.76779 0,0 -0.0076,0.0372 -0.0076,0.0372 -0.05611,0.22986 -0.166052,0.42384 0.09137,0.53355 0,0 0.498917,0.24881 0.498917,0.24881 0,0 -2.88253,2.43911 -2.88253,2.43911 -0.293815,0.30433 -0.193349,0.39641 -0.08227,0.73599 0,0 0.265001,0.82024 0.265001,0.82024 0,0 -2.687929,-0.48849 -2.687929,-0.48849 -0.330589,-0.0823 -0.561622,-0.0823 -0.569432,0.18417 0,0 0.111081,3.083684 0.111081,3.083684 0,0 -0.81108,0 -0.81108,0 0,0 0.109564,-3.073884 0.109564,-3.073884 0,-0.30497 -0.228607,-0.29455 -0.771917,-0.18414 0,0 -2.485482,0.47868 -2.485482,0.47868 0,0 0.32111,-0.82024 0.32111,-0.82024 0.111081,-0.3128 0.138378,-0.52503 -0.109563,-0.73597 0,0 -2.946525,-2.40255 -2.946525,-2.40255 0,0 0.542022,-0.33177 0.542022,-0.33177 0.156574,-0.11889 0.168327,-0.24816 0.08378,-0.51589 0,0 -0.551196,-1.79458 -0.551196,-1.79458 0,0 1.417097,0.30432 1.417097,0.30432 0.397085,0.0914 0.506801,0 0.606053,-0.22141 0,0 0.397049,-0.80977 0.397049,-0.80977 0,0 1.400112,1.58299 1.400112,1.58299 0.24832,0.29583 0.598205,0.10116 0.4872,-0.32195 0,0 -0.672664,-3.3057 -0.672664,-3.3057 0,0 1.039649,0.60014 1.039649,0.60014 0.168327,0.10117 0.340824,0.12731 0.442769,-0.0646"
         style="fill:#ffffff;fill-opacity:1;fill-rule:nonzero;stroke:none;stroke-width:1.3374356"
         id="path1427-1"
         inkscape:connector-curvature="0" />
      <flowRoot
         transform="matrix(0.28975424,0,0,0.28975424,-6.9325832,-15.976796)"
         style="font-style:normal;font-weight:normal;font-size:40px;line-height:1.25;font-family:sans-serif;letter-spacing:0px;word-spacing:0px;fill:#000000;fill-opacity:1;stroke:none"
         id="flowRoot1461"
         xml:space="preserve"><flowRegion
           id="flowRegion1463"><rect
             y="516.80542"
             x="281.42856"
             height="110.43862"
             width="302.64352"
             id="rect1465" /></flowRegion><flowPara
           id="flowPara856"
           style="font-style:normal;font-variant:normal;font-weight:normal;font-stretch:normal;font-size:32px;line-height:4;font-family:Helvetica-Normal;-inkscape-font-specification:Helvetica-Normal">Shared Services</flowPara><flowPara
           id="flowPara872"
           style="font-style:normal;font-variant:normal;font-weight:normal;font-stretch:normal;font-size:32px;line-height:4;font-family:Helvetica-Normal;-inkscape-font-specification:Helvetica-Normal">Canada</flowPara></flowRoot>      <flowRoot
         transform="matrix(0.22787185,0,0,0.22787185,-5.4227533,-30.787341)"
         style="font-style:normal;font-weight:normal;font-size:40px;line-height:1.25;font-family:sans-serif;letter-spacing:0px;word-spacing:0px;fill:#000000;fill-opacity:1;stroke:none"
         id="flowRoot874"
         xml:space="preserve"><flowRegion
           id="flowRegion876"><rect
             y="503.23398"
             x="272.85715"
             height="115.34523"
             width="312.46429"
             id="rect878" /></flowRegion><flowPara
           style="font-style:normal;font-variant:normal;font-weight:normal;font-stretch:normal;line-height:0;font-family:Helvetica-Normal;-inkscape-font-specification:Helvetica-Normal;letter-spacing:0.05805529px;fill:#ffffff;fill-opacity:1"
           id="flowPara882">Shared Services</flowPara><flowPara
           id="flowPara886"
           style="font-style:normal;font-variant:normal;font-weight:normal;font-stretch:normal;line-height:1;font-family:Helvetica-Normal;-inkscape-font-specification:Helvetica-Normal" /></flowRoot>      <flowRoot
         transform="matrix(0.22787185,0,0,0.22787185,75.470351,-30.828836)"
         style="font-style:normal;font-weight:normal;font-size:40px;line-height:1.25;font-family:sans-serif;letter-spacing:0px;word-spacing:0px;fill:#000000;fill-opacity:1;stroke:none"
         id="flowRoot874-1"
         xml:space="preserve"><flowRegion
           id="flowRegion876-0"><rect
             y="503.23398"
             x="272.85715"
             height="114.51588"
             width="343.97998"
             id="rect878-7" /></flowRegion><flowPara
           style="font-style:normal;font-variant:normal;font-weight:normal;font-stretch:normal;line-height:0;font-family:Helvetica-Normal;-inkscape-font-specification:Helvetica-Normal;letter-spacing:0.11611058px;fill:#ffffff;fill-opacity:1"
           id="flowPara882-5">Services partagés</flowPara><flowPara
           id="flowPara886-2"
           style="font-style:normal;font-variant:normal;font-weight:normal;font-stretch:normal;line-height:1;font-family:Helvetica-Normal;-inkscape-font-specification:Helvetica-Normal" /></flowRoot>      <flowRoot
         transform="matrix(0.22787185,0,0,0.22787185,-5.6981463,-21.757407)"
         style="font-style:normal;font-weight:normal;font-size:40px;line-height:1.25;font-family:sans-serif;letter-spacing:0px;word-spacing:0px;fill:#000000;fill-opacity:1;stroke:none"
         id="flowRoot874-0"
         xml:space="preserve"><flowRegion
           id="flowRegion876-02"><rect
             y="503.23398"
             x="272.85715"
             height="115.34523"
             width="312.46429"
             id="rect878-4" /></flowRegion><flowPara
           style="font-style:normal;font-variant:normal;font-weight:normal;font-stretch:normal;line-height:0;font-family:Helvetica-Normal;-inkscape-font-specification:Helvetica-Normal;letter-spacing:0.05805529px;fill:#ffffff;fill-opacity:1"
           id="flowPara882-1">Canada</flowPara><flowPara
           id="flowPara886-3"
           style="font-style:normal;font-variant:normal;font-weight:normal;font-stretch:normal;line-height:1;font-family:Helvetica-Normal;-inkscape-font-specification:Helvetica-Normal" /></flowRoot>      <flowRoot
         transform="matrix(0.22787185,0,0,0.22787185,75.147382,-21.73462)"
         style="font-style:normal;font-weight:normal;font-size:40px;line-height:1.25;font-family:sans-serif;letter-spacing:0px;word-spacing:0px;fill:#000000;fill-opacity:1;stroke:none"
         id="flowRoot874-0-8"
         xml:space="preserve"><flowRegion
           id="flowRegion876-02-4"><rect
             y="503.23398"
             x="272.85715"
             height="115.34523"
             width="312.46429"
             id="rect878-4-1" /></flowRegion><flowPara
           style="font-style:normal;font-variant:normal;font-weight:normal;font-stretch:normal;line-height:0;font-family:Helvetica-Normal;-inkscape-font-specification:Helvetica-Normal;letter-spacing:0.05805529px;fill:#ffffff;fill-opacity:1"
           id="flowPara882-1-6">Canada</flowPara><flowPara
           id="flowPara886-3-6"
           style="font-style:normal;font-variant:normal;font-weight:normal;font-stretch:normal;line-height:1;font-family:Helvetica-Normal;-inkscape-font-specification:Helvetica-Normal" /></flowRoot>    </g>
    <g
       transform="matrix(0.44167973,0,0,0.44167973,308.3017,253.21225)"
       id="layer1-4"
       inkscape:label="Layer 1"
       inkscape:export-xdpi="300"
       inkscape:export-ydpi="300"
       inkscape:export-filename="C:\Users\heardp\Desktop\footer-fip.png">
      <g
         id="g1407"
         inkscape:label="wordmark-bw"
         transform="matrix(0.35277777,0,0,-0.35277777,-66.697095,248.24866)">
        <g
           id="g1409"
           transform="scale(1,-1)">
          <path
             d="m 250.70313,-514.59326 c 0,0 -0.84717,-13.23633 -0.84717,-13.23633 -0.10547,-0.31787 -0.62891,-0.32227 -0.63477,0 -0.0522,2.85889 -5.09326,0.46094 -6.8833,0.0537 -15.56641,-3.54834 -26.0498,8.94727 -26.0498,19.3252 0,0 0,0 0,0 0,13.44775 8.89502,20.75488 20.33154,20.75488 9.10693,0 13.71338,-5.82422 15.19629,-12.12549 0.18554,-0.78857 -0.7041,-0.625 -0.90088,0 -2.75293,8.78906 -9.58203,11.00879 -12.97168,10.95996 -7.35986,-0.10547 -14.20508,-6.03808 -14.4541,-19.58935 -0.31787,-17.26123 19.17724,-28.55909 26.5791,-6.35401 0.15918,0.47705 0.5293,0.58252 0.63477,0.21143 z"
             style="fill:#ffffff;fill-opacity:1;fill-rule:nonzero;stroke:none"
             id="path1411"
             inkscape:connector-curvature="0" />
          <path
             d="m 260.65771,-488.91406 c 3.33545,0.42334 6.30079,-2.59424 6.30079,-5.55908 0,0 0,-7.20069 0,-7.20069 -14.24317,5.24121 -9.79541,12.54785 -6.30079,12.75977 z m -3.83935,-23.56104 c 4.02393,-1.69385 14.93066,-1.16455 14.93066,3.81201 0,0 0,15.30127 0,15.30127 0,4.1836 4.13037,5.6128 5.29444,2.80664 0.37158,-0.37109 1.00683,-0.10595 0.68945,0.52979 -0.7417,2.96484 -8.04834,3.44092 -10.58936,-0.52979 -14.03125,10.21827 -22.97949,-9.90185 -6.19531,-10.21875 5.24219,-0.79443 5.82373,-3.8125 5.82373,-5.93066 0,-5.24121 -2.75342,-5.71826 -4.39404,-5.71826 -1.74756,0 -3.17676,0.52978 -4.12988,3.23047 -1.48242,5.40039 -9.5835,0.58154 -1.42969,-3.28272 z"
             style="fill:#ffffff;fill-opacity:1;fill-rule:nonzero;stroke:none"
             id="path1413"
             inkscape:connector-curvature="0" />
          <path
             d="m 285.38379,-513.00488 c 0,0 -6.83008,0.8999 -6.83008,0.8999 -0.42383,0.10596 -0.42383,0.31738 0.37061,0.5293 1.48291,0.0537 2.43554,1.05908 2.43554,3.23047 0,0 0,15.93701 0,15.93701 0,1.90576 -2.67236,3.57959 -3.22998,3.81201 -1.27099,0.5293 0.63526,0.42334 0.63526,0.42334 0,0 11.17187,0 11.17187,0 0.37012,0 1.53565,0.10596 0.0532,-0.58203 -1.69433,-0.63575 -3.54785,-2.01221 -3.54785,-3.65332 0,-1.64112 0,-11.96631 0,-11.96631 0,-5.02979 3.28321,-7.78272 6.5127,-7.78272 3.38867,0 6.19531,0.74121 6.19531,7.72998 0,0 0,12.01905 0,12.01905 0,1.74707 -2.27734,3.33545 -3.49512,3.75927 -0.79394,0.21192 -1.11181,0.47608 -0.42334,0.47608 0,0 11.9126,0 11.9126,0 0.63477,0.0532 0.90039,-0.15869 0.31836,-0.31787 -2.85937,-1.11133 -3.22998,-3.22901 -3.22998,-3.91748 0,0 0,-13.97852 0,-13.97852 0,-7.99463 -7.67773,-6.93506 -10.37744,-6.93506 -3.38818,0.0522 -6.98877,2.16992 -7.36035,3.12256 -0.10547,-2.59326 -0.42334,-2.8584 -1.11133,-2.80566 z"
             style="fill:#ffffff;fill-opacity:1;fill-rule:nonzero;stroke:none"
             id="path1415"
             inkscape:connector-curvature="0" />
          <path
             d="m 346.43164,-488.91602 c 4.21875,0 7.04102,-1.63916 7.04102,-11.4873 0,-9.37158 -2.82227,-11.64648 -7.04102,-11.64648 -4.21875,0 -7.63769,5.4663 -7.63769,11.75195 0,6.28564 3.41894,11.38183 7.63769,11.38183 z m 6.88281,-1.21582 c -1.16504,2.01221 -4.02441,2.48829 -7.57129,2.48829 -6.72461,0 -12.23144,-5.18897 -12.23144,-12.2837 0,-6.30029 3.54883,-13.39453 12.60156,-13.39453 8.1543,0 8.10156,5.45264 8.10156,0.89893 0,0 0,-7.99414 0,-7.99414 0,-4.12989 -1.6416,-5.34717 -2.91308,-5.71826 -1.85254,-0.63526 -4.23535,-0.7417 -0.42383,-0.7417 0,0 7.09473,-0.15772 7.09473,-0.15772 0.40234,0.019 0.47754,0.10547 0.47754,0.74072 0,0 0,31.23731 0,31.23731 0,2.17187 0.79394,5.50684 4.28906,6.46045 0.31738,0.0527 0.68847,0.26465 0.31738,0.3706 0,0 -7.73047,0.84717 -7.73047,0.84717 -1.11133,0.10645 -1.58789,-0.42383 -2.06543,-2.59472"
             style="fill:#ffffff;fill-opacity:1;fill-rule:nonzero;stroke:none"
             id="path1417"
             inkscape:connector-curvature="0" />
          <path
             d="m 316.56934,-488.94043 c 3.33593,0.42334 6.30078,-2.59473 6.30078,-5.55957 0,0 0,-7.20117 0,-7.20117 -14.24317,5.2417 -9.79492,12.54883 -6.30078,12.76074 z m -3.60059,-23.56152 c 4.02441,-1.69336 14.93164,-1.16407 14.93164,3.81201 0,0 0,15.30176 0,15.30176 0,4.18261 4.12891,5.6123 5.29395,2.80566 0.37109,-0.37012 1.00683,-0.10547 0.68847,0.5293 -0.74121,2.96533 -8.04785,3.44238 -10.58886,-0.5293 -14.03125,10.21924 -22.9795,-9.90088 -6.19532,-10.21777 5.24219,-0.79444 5.82422,-3.81201 5.82422,-5.93018 0,-5.24219 -2.7539,-5.71875 -4.39453,-5.71875 -1.74707,0 -3.17676,0.53027 -4.12988,3.22998 -1.48242,5.40039 -9.5835,0.58203 -1.42969,-3.28271 z"
             style="fill:#ffffff;fill-opacity:1;fill-rule:nonzero;stroke:none"
             id="path1419"
             inkscape:connector-curvature="0" />
          <path
             d="m 371.58105,-488.88818 c 3.33497,0.42334 6.30079,-2.59375 6.30079,-5.55909 0,0 0,-7.20019 0,-7.20019 -14.24219,5.24121 -9.79493,12.54785 -6.30079,12.75928 z m -3.60058,-23.56104 c 4.02344,-1.69287 14.92969,-1.16357 14.92969,3.81201 0,0 0,15.30127 0,15.30127 0,4.1836 4.12988,5.61328 5.29589,2.80713 0.37012,-0.37158 1.00586,-0.10596 0.6875,0.52979 -0.74023,2.96484 -8.04687,3.44043 -10.58886,-0.52979 -14.0293,10.21826 -22.97852,-9.90185 -6.19434,-10.21875 5.24219,-0.79443 5.82422,-3.8125 5.82422,-5.93115 0,-5.24024 -2.75293,-5.71777 -4.39453,-5.71777 -1.74707,0 -3.17676,0.52978 -4.12988,3.22998 -1.4834,5.40087 -9.58301,0.58203 -1.42969,-3.28272 z"
             style="fill:#ffffff;fill-opacity:1;fill-rule:nonzero;stroke:none"
             id="path1421"
             inkscape:connector-curvature="0" />
          <path
             d="m 361.78516,-515.17529 c 0,0 0,-11.85938 0,-11.85938 0,0 5.82519,0 5.82519,0 0,0 0,11.85938 0,11.85938 0,0 -5.82519,0 -5.82519,0 z"
             style="fill:#ffffff;fill-opacity:1;fill-rule:nonzero;stroke:none"
             id="path1423"
             inkscape:connector-curvature="0" />
          <path
             d="m 380.5293,-515.17529 c 0,0 0,-11.85938 0,-11.85938 0,0 5.82324,0 5.82324,0 0,0 0,11.85938 0,11.85938 0,0 -5.82324,0 -5.82324,0 z"
             style="fill:#ffffff;fill-opacity:1;fill-rule:nonzero;stroke:none"
             id="path1425"
             inkscape:connector-curvature="0" />
          <path
             d="m 373.26074,-524.56982 c 0,0 0.83301,-1.69288 0.83301,-1.69288 0,0 0.8252,1.63086 0.8252,1.63086 0.10449,0.17188 0.1875,0.1587 0.35253,0.0767 0,0 0.70801,-0.35156 0.70801,-0.35156 0,0 -0.46094,2.27881 -0.46094,2.27881 -0.0967,0.44727 0.15821,0.57764 0.4336,0.2749 0,0 1.01269,-1.08056 1.01269,-1.08056 0,0 0.26758,0.6123 0.26758,0.6123 0.0899,0.18555 0.22754,0.15869 0.40625,0.12402 0,0 1.0459,-0.2207 1.0459,-0.2207 0,0 -0.35059,1.32178 -0.35059,1.32178 0,0 -0.007,0.0278 -0.007,0.0278 -0.042,0.17188 -0.12402,0.3169 0.0684,0.39893 0,0 0.37304,0.18603 0.37304,0.18603 0,0 -2.15527,1.82373 -2.15527,1.82373 -0.21973,0.22754 -0.14453,0.29639 -0.0615,0.55029 0,0 0.19824,0.61329 0.19824,0.61329 0,0 -2.00977,-0.36524 -2.00977,-0.36524 -0.24707,-0.0615 -0.41992,-0.0615 -0.42578,0.1377 0,0 0.083,2.30566 0.083,2.30566 0,0 -0.60644,0 -0.60644,0 0,0 0.082,-2.29834 0.082,-2.29834 0,-0.22803 -0.1709,-0.22021 -0.57715,-0.13769 0,0 -1.8584,0.35791 -1.8584,0.35791 0,0 0.24023,-0.61329 0.24023,-0.61329 0.083,-0.23388 0.10352,-0.39257 -0.082,-0.55029 0,0 -2.20312,-1.79638 -2.20312,-1.79638 0,0 0.40527,-0.24805 0.40527,-0.24805 0.11719,-0.0889 0.12598,-0.18555 0.0625,-0.38574 0,0 -0.41211,-1.3418 -0.41211,-1.3418 0,0 1.05957,0.22754 1.05957,0.22754 0.29688,0.0684 0.37891,0 0.45313,-0.16553 0,0 0.29687,-0.60547 0.29687,-0.60547 0,0 1.04688,1.1836 1.04688,1.1836 0.18554,0.22119 0.44726,0.0757 0.36426,-0.24073 0,0 -0.50293,-2.47168 -0.50293,-2.47168 0,0 0.77734,0.44873 0.77734,0.44873 0.12598,0.0757 0.25488,0.0952 0.33105,-0.0483"
             style="fill:#ffffff;fill-opacity:1;fill-rule:nonzero;stroke:none"
             id="path1427"
             inkscape:connector-curvature="0" />
        </g>
      </g>
      <flowRoot
         transform="matrix(0.28975424,0,0,0.28975424,-6.9325832,-15.976796)"
         style="font-style:normal;font-weight:normal;font-size:40px;line-height:1.25;font-family:sans-serif;letter-spacing:0px;word-spacing:0px;fill:#000000;fill-opacity:1;stroke:none"
         id="flowRoot1461-4"
         xml:space="preserve"><flowRegion
           id="flowRegion1463-5"><rect
             y="516.80542"
             x="281.42856"
             height="110.43862"
             width="302.64352"
             id="rect1465-6" /></flowRegion><flowPara
           id="flowPara856-9"
           style="font-style:normal;font-variant:normal;font-weight:normal;font-stretch:normal;font-size:32px;line-height:4;font-family:Helvetica-Normal;-inkscape-font-specification:Helvetica-Normal">Shared Services</flowPara><flowPara
           id="flowPara872-8"
           style="font-style:normal;font-variant:normal;font-weight:normal;font-stretch:normal;font-size:32px;line-height:4;font-family:Helvetica-Normal;-inkscape-font-specification:Helvetica-Normal">Canada</flowPara></flowRoot>    </g>
  </g>
  <g
     style="display:inline"
     transform="translate(0,-81.1)"
     id="g3255"
     inkscape:groupmode="layer"
     inkscape:label="footer (blank)">
    <rect
       inkscape:export-ydpi="300"
       inkscape:export-xdpi="300"
       y="274.13245"
       x="0"
       height="23.245541"
       width="356.80951"
       id="rect3159"
       style="opacity:1;fill:#33333e;fill-opacity:1;stroke:none;stroke-width:4.99218178;stroke-miterlimit:4;stroke-dasharray:none;stroke-opacity:1"
       inkscape:export-filename="C:\Users\heardp\Desktop\footer-blank.png" />
    <rect
       inkscape:export-ydpi="300"
       inkscape:export-xdpi="300"
       y="294.44492"
       x="0"
       height="2.9330566"
       width="356.80951"
       id="rect3161"
       style="opacity:1;fill:url(#linearGradient2704);fill-opacity:1;stroke:none;stroke-width:1.77329397;stroke-miterlimit:4;stroke-dasharray:none;stroke-opacity:1"
       inkscape:export-filename="C:\Users\heardp\Desktop\footer-blank.png" />
  </g>
  <g
     style="display:none"
     transform="translate(0,-81.1)"
     id="g3154"
     inkscape:groupmode="layer"
     inkscape:label="footer (page number)"
     sodipodi:insensitive="true">
    <path
       style="opacity:1;fill:url(#linearGradient2704);fill-opacity:1;stroke:none;stroke-width:1.77329397;stroke-miterlimit:4;stroke-dasharray:none;stroke-opacity:1"
       d="m 0,294.44492 h 330.21384 l 26.59567,-20.10833 v 23.04138 H 0 Z"
       id="rect3060"
       inkscape:connector-curvature="0"
       sodipodi:nodetypes="cccccc"
       inkscape:export-xdpi="300"
       inkscape:export-ydpi="300"
       inkscape:export-filename="C:\Users\heardp\Desktop\footer-page-number.png" />
  </g>
</svg>
