<?xml version="1.0" encoding="UTF-8" standalone="no"?>
<svg
   xmlns:dc="http://purl.org/dc/elements/1.1/"
   xmlns:cc="http://creativecommons.org/ns#"
   xmlns:rdf="http://www.w3.org/1999/02/22-rdf-syntax-ns#"
   xmlns:svg="http://www.w3.org/2000/svg"
   xmlns="http://www.w3.org/2000/svg"
   xmlns:xlink="http://www.w3.org/1999/xlink"
   xmlns:sodipodi="http://sodipodi.sourceforge.net/DTD/sodipodi-0.dtd"
   xmlns:inkscape="http://www.inkscape.org/namespaces/inkscape"
   inkscape:export-ydpi="300"
   inkscape:export-xdpi="300"
   inkscape:export-filename="C:\Users\heardp\skin-tones-black-bg.png"
   sodipodi:docname="aran.svg"
   inkscape:version="1.0 (4035a4fb49, 2020-05-01)"
   id="svg8"
   version="1.1"
   viewBox="0 0 193.75601 214.53763"
   height="214.53763mm"
   width="193.75601mm">
  <defs
     id="defs2">
    <linearGradient
       id="linearGradient1018"
       inkscape:collect="always">
      <stop
         id="stop1014"
         offset="0"
         style="stop-color:#fee2c1;stop-opacity:1" />
      <stop
         style="stop-color:#f4c18c;stop-opacity:1"
         offset="0.30372766"
         id="stop1032" />
      <stop
         id="stop1054"
         offset="0.51456821"
         style="stop-color:#db9558;stop-opacity:1" />
      <stop
         style="stop-color:#a06644;stop-opacity:1"
         offset="0.67831892"
         id="stop1056" />
      <stop
         id="stop1159"
         offset="0.78114396"
         style="stop-color:#7b4c2e;stop-opacity:1;" />
      <stop
         id="stop1016"
         offset="1"
         style="stop-color:#2f1600;stop-opacity:1" />
    </linearGradient>
    <clipPath
       id="clipPath1222"
       clipPathUnits="userSpaceOnUse">
      <path
         inkscape:connector-curvature="0"
         d="m -168.17059,89.069442 c -17.67385,10.894827 -41.83488,7.764248 -41.83488,7.764248 0,0 4.78383,-0.657561 11.6033,-3.192994 6.81947,-2.535431 15.67457,-6.948737 23.81711,-14.460228 7.71525,-6.13382 16.16554,3.878045 6.41447,9.888974 z m -42.29737,15.146588 c 22.18337,5.21176 22.51942,8.77403 31.47295,11.71399 8.95353,2.93998 17.23889,-3.07359 5.34539,-8.68626 -11.89349,-5.61265 -36.81834,-3.02773 -36.81834,-3.02773 z m 57.3404,-16.512695 c -2.83481,-4.346726 -5.85862,-4.913691 -6.2366,1.13393 -0.37798,6.047618 5.14297,17.834815 9.11172,21.803565 3.96875,3.96875 10.29985,2.17337 7.18154,-5.57514 -3.1183,-7.748519 -8.90243,-15.592526 -10.05666,-17.362355 z m -10.67782,8.504465 c 3.97935,18.68348 13.57626,20.81332 31.27752,33.3564 9.52556,6.61767 5.66966,14.55207 -1.79537,11.24479 -19.59162,-11.70971 -35.20667,-18.36851 -29.48215,-44.60119 z m 18.74762,-20.599705 c -5.3688,-3.960775 -13.22917,-4.25223 -6.61458,3.590777 8.03071,10.461387 13.33668,19.665437 18.01055,36.285718 1.60641,8.59895 10.01638,11.33928 8.40999,-3.3073 -1.78875,-13.761752 -9.52165,-28.837051 -19.80596,-36.569195 z m 52.431768,39.387975 c -11.875578,-0.76995 -14.619198,-0.64881 -20.952518,0.25765 -6.61724,0.9471 -8.91646,6.78836 1.03419,7.97022 8.51184,1.01097 11.63744,1.0721 22.018768,0.24519 8.410882,-0.66995 6.768899,-7.89803 -2.10044,-8.47306 z m 7.89804,-14.65132 c -10.59203,-0.93935 -20.496168,-0.779102 -27.668028,-0.14918 -7.17188,0.62993 -12.62321,7.36583 0.60043,8.68255 13.223656,1.31672 22.326267,0.40521 27.560646,-0.22653 7.657116,-0.92412 11.014499,-7.28629 -0.493048,-8.30684 z m -9.018971,-14.950265 c -10.021897,-0.23386 -22.463427,-0.553297 -27.186677,0.601356 -6.55979,1.603618 -7.21577,7.015824 3.42567,8.084902 10.64143,1.069078 17.30458,0.734671 27.040898,-0.133633 8.913852,-0.794957 6.742009,-8.318762 -3.279891,-8.552625 z M -126.29256,72.414201 c -9.63077,0.359294 -10.18582,7.833546 -0.70842,8.190617 6.59061,0.459753 12.0795,0.469754 21.64808,-0.366512 10.641928,-0.930074 4.34186,-7.335292 -2.05894,-7.735681 -6.4008,-0.400391 -9.24995,-0.447717 -18.88072,-0.08842 z"
         style="display:inline;fill:#ffffff;fill-opacity:1;stroke:none;stroke-width:0.26458332px;stroke-linecap:butt;stroke-linejoin:miter;stroke-opacity:1"
         id="path1224" />
    </clipPath>
    <linearGradient
       gradientUnits="userSpaceOnUse"
       y2="77.126579"
       x2="71.892235"
       y1="208.84579"
       x1="140.37222"
       id="linearGradient1020"
       xlink:href="#linearGradient1018"
       inkscape:collect="always" />
  </defs>
  <sodipodi:namedview
     inkscape:document-rotation="0"
     inkscape:guide-bbox="true"
     showguides="true"
     inkscape:window-maximized="1"
     inkscape:window-y="41"
     inkscape:window-x="-9"
     inkscape:window-height="1001"
     inkscape:window-width="1920"
     showgrid="false"
     inkscape:current-layer="g1098"
     inkscape:document-units="mm"
     inkscape:cy="389.04953"
     inkscape:cx="256.60407"
     inkscape:zoom="0.7"
     inkscape:pageshadow="2"
     inkscape:pageopacity="0.0"
     borderopacity="1.0"
     bordercolor="#666666"
     pagecolor="#ffffff"
     id="base" />
  <metadata
     id="metadata5">
    <rdf:RDF>
      <cc:Work
         rdf:about="">
        <dc:format>image/svg+xml</dc:format>
        <dc:type
           rdf:resource="http://purl.org/dc/dcmitype/StillImage" />
        <dc:title />
      </cc:Work>
    </rdf:RDF>
  </metadata>
  <g
     sodipodi:insensitive="true"
     transform="translate(-7.5595236,-34.837364)"
     style="display:inline"
     inkscape:label="bg black"
     id="layer2"
     inkscape:groupmode="layer">
    <rect
       inkscape:export-ydpi="300"
       inkscape:export-xdpi="300"
       inkscape:export-filename="C:\Users\heardp\rect905.png"
       y="35.593319"
       x="6.8035712"
       height="213.78166"
       width="194.51198"
       id="rect905"
       style="opacity:1;fill:#000000;fill-opacity:1;stroke:none;stroke-width:0.6;stroke-linejoin:bevel;stroke-miterlimit:4;stroke-dasharray:none;stroke-opacity:1;paint-order:markers fill stroke" />
  </g>
  <g
     sodipodi:insensitive="true"
     inkscape:groupmode="layer"
     id="g1163"
     inkscape:label="bg white"
     style="display:none"
     transform="translate(-7.5595236,-34.837364)">
    <rect
       style="opacity:1;fill:#ffffff;fill-opacity:1;stroke:none;stroke-width:0.6;stroke-linejoin:bevel;stroke-miterlimit:4;stroke-dasharray:none;stroke-opacity:1;paint-order:markers fill stroke"
       id="rect1161"
       width="194.51198"
       height="213.78166"
       x="6.8035712"
       y="35.593319"
       inkscape:export-filename="C:\Users\heardp\rect905.png"
       inkscape:export-xdpi="300"
       inkscape:export-ydpi="300" />
  </g>
  <g
     sodipodi:insensitive="true"
     transform="translate(-7.5595236,-34.837364)"
     style="display:none"
     id="layer1"
     inkscape:groupmode="layer"
     inkscape:label="hand black">
    <path
       sodipodi:nodetypes="ccszzc"
       inkscape:connector-curvature="0"
       id="path873"
       d="m 71.944608,125.89715 c 0.359293,9.63077 7.833544,10.18582 8.190616,0.70842 0.459754,-6.59061 0.469755,-12.0795 -0.366511,-21.64807 -0.930075,-10.641936 -7.335294,-4.34187 -7.735683,2.05893 -0.400389,6.4008 -0.447715,9.24995 -0.08842,18.88072 z"
       style="fill:#000000;fill-opacity:1;stroke:none;stroke-width:0.263267px;stroke-linecap:butt;stroke-linejoin:miter;stroke-opacity:1" />
    <path
       sodipodi:nodetypes="zsssz"
       inkscape:connector-curvature="0"
       id="path890"
       d="m 84.924892,93.351513 c -0.233862,10.021897 -0.553298,22.463437 0.601356,27.186677 1.603618,6.55979 7.015824,7.21577 8.084902,-3.42566 1.069078,-10.64144 0.734671,-17.30459 -0.133634,-27.040903 -0.794956,-8.913857 -8.318761,-6.742013 -8.552624,3.279886 z"
       style="fill:#000000;fill-opacity:1;stroke:none;stroke-width:0.276338px;stroke-linecap:butt;stroke-linejoin:miter;stroke-opacity:1" />
    <path
       sodipodi:nodetypes="sssss"
       inkscape:connector-curvature="0"
       id="path892"
       d="m 99.875159,84.332546 c -0.939351,10.592029 -0.779106,20.496164 -0.149182,27.668024 0.629923,7.17188 7.365823,12.62321 8.682553,-0.60043 1.31672,-13.223655 0.4052,-22.326261 -0.22654,-27.560649 -0.92412,-7.657113 -7.28628,-11.014495 -8.306831,0.493055 z"
       style="fill:#000000;fill-opacity:1;stroke:none;stroke-width:0.27003px;stroke-linecap:butt;stroke-linejoin:miter;stroke-opacity:1" />
    <path
       sodipodi:nodetypes="sssss"
       inkscape:connector-curvature="0"
       id="path894"
       d="m 114.52647,92.230584 c -0.76995,11.875576 -0.64881,14.619196 0.25765,20.952526 0.9471,6.61724 6.78837,8.91645 7.97022,-1.03419 1.01097,-8.51185 1.0721,-11.63745 0.24519,-22.018776 -0.66995,-8.410883 -7.89803,-6.768902 -8.47306,2.10044 z"
       style="fill:#000000;fill-opacity:1;stroke:none;stroke-width:0.269844px;stroke-linecap:butt;stroke-linejoin:miter;stroke-opacity:1" />
    <path
       sodipodi:nodetypes="ccccc"
       inkscape:connector-curvature="0"
       id="path825"
       d="m 75.138502,144.66235 c -3.960777,5.3688 -4.252231,13.22917 3.590776,6.61459 10.461386,-8.03072 19.665435,-13.33668 36.285712,-18.01056 8.59895,-1.6064 11.33928,-10.01638 -3.3073,-8.40998 -13.76175,1.78874 -28.837046,9.52164 -36.569188,19.80595 z"
       style="fill:#000000;fill-opacity:1;stroke:none;stroke-width:0.264583px;stroke-linecap:butt;stroke-linejoin:miter;stroke-opacity:1" />
    <path
       sodipodi:nodetypes="cccc"
       inkscape:connector-curvature="0"
       id="path827"
       d="m 95.738205,163.40997 c 18.683475,-3.97935 20.813315,-13.57626 33.356395,-31.27752 6.61767,-9.52556 14.55207,-5.66966 11.24479,1.79538 -11.70971,19.59161 -18.36851,35.20666 -44.601185,29.48214 z"
       style="fill:#000000;fill-opacity:1;stroke:none;stroke-width:0.264583px;stroke-linecap:butt;stroke-linejoin:miter;stroke-opacity:1" />
    <path
       sodipodi:nodetypes="scsss"
       inkscape:connector-curvature="0"
       id="path829"
       d="m 87.23374,152.73215 c -4.346724,2.83481 -4.913691,5.85863 1.13393,6.2366 6.047618,0.37798 17.83481,-5.14297 21.80356,-9.11172 3.96875,-3.96875 2.17337,-10.29985 -5.57514,-7.18154 -7.748514,3.1183 -15.59252,8.90243 -17.36235,10.05666 z"
       style="fill:#000000;fill-opacity:1;stroke:none;stroke-width:0.264583px;stroke-linecap:butt;stroke-linejoin:miter;stroke-opacity:1" />
    <path
       sodipodi:nodetypes="cssc"
       inkscape:connector-curvature="0"
       id="path831"
       d="m 103.74643,210.07255 c 5.21176,-22.18337 8.77403,-22.51942 11.714,-31.47295 2.93997,-8.95353 -3.0736,-17.23889 -8.68626,-5.34539 -5.61266,11.89349 -3.02774,36.81834 -3.02774,36.81834 z"
       style="fill:#000000;fill-opacity:1;stroke:none;stroke-width:0.264583px;stroke-linecap:butt;stroke-linejoin:miter;stroke-opacity:1" />
    <path
       sodipodi:nodetypes="scscs"
       inkscape:connector-curvature="0"
       id="path833"
       d="m 88.599847,167.77518 c 10.89483,17.67385 7.764248,41.83488 7.764248,41.83488 0,0 -0.65756,-4.78383 -3.192992,-11.6033 -2.535432,-6.81947 -6.948738,-15.67457 -14.460228,-23.81711 -6.133821,-7.71525 3.878045,-16.16554 9.888972,-6.41447 z"
       style="fill:#000000;fill-opacity:1;stroke:none;stroke-width:0.264583px;stroke-linecap:butt;stroke-linejoin:miter;stroke-opacity:1" />
  </g>
  <g
     sodipodi:insensitive="true"
     transform="translate(-7.5595236,-34.837364)"
     inkscape:label="hand white"
     inkscape:groupmode="layer"
     id="g880"
     style="display:none">
    <path
       inkscape:connector-curvature="0"
       d="m 88.599847,167.77518 c 10.89483,17.67385 7.764248,41.83488 7.764248,41.83488 0,0 -0.65756,-4.78383 -3.192992,-11.6033 -2.535432,-6.81947 -6.948738,-15.67457 -14.460228,-23.81711 -6.133821,-7.71525 3.878045,-16.16554 9.888972,-6.41447 z m 15.146583,42.29737 c 5.21176,-22.18337 8.77403,-22.51942 11.714,-31.47295 2.93997,-8.95353 -3.0736,-17.23889 -8.68626,-5.34539 -5.61266,11.89349 -3.02774,36.81834 -3.02774,36.81834 z m -16.51269,-57.3404 c -4.346724,2.83481 -4.913691,5.85863 1.13393,6.2366 6.047618,0.37798 17.83481,-5.14297 21.80356,-9.11172 3.96875,-3.96875 2.17337,-10.29985 -5.57514,-7.18154 -7.748514,3.1183 -15.59252,8.90243 -17.36235,10.05666 z m 8.504465,10.67782 c 18.683475,-3.97935 20.813315,-13.57626 33.356395,-31.27752 6.61767,-9.52556 14.55207,-5.66966 11.24479,1.79538 -11.70971,19.59161 -18.36851,35.20666 -44.601185,29.48214 z M 75.138502,144.66235 c -3.960777,5.3688 -4.252231,13.22917 3.590776,6.61459 10.461386,-8.03072 19.665435,-13.33668 36.285712,-18.01056 8.59895,-1.6064 11.33928,-10.01638 -3.3073,-8.40998 -13.76175,1.78874 -28.837046,9.52164 -36.569188,19.80595 z M 114.52647,92.230584 c -0.76995,11.875576 -0.64881,14.619196 0.25765,20.952526 0.9471,6.61724 6.78837,8.91645 7.97022,-1.03419 1.01097,-8.51185 1.0721,-11.63745 0.24519,-22.018776 -0.66995,-8.410883 -7.89803,-6.768902 -8.47306,2.10044 z M 99.875159,84.332546 c -0.939351,10.592029 -0.779106,20.496164 -0.149182,27.668024 0.629923,7.17188 7.365823,12.62321 8.682553,-0.60043 1.31672,-13.223655 0.4052,-22.326261 -0.22654,-27.560649 -0.92412,-7.657113 -7.28628,-11.014495 -8.306831,0.493055 z m -14.950267,9.018967 c -0.233862,10.021897 -0.553298,22.463437 0.601356,27.186677 1.603618,6.55979 7.015824,7.21577 8.084902,-3.42566 1.069078,-10.64144 0.734671,-17.30459 -0.133634,-27.040903 -0.794956,-8.913857 -8.318761,-6.742013 -8.552624,3.279886 z M 71.944608,125.89715 c 0.359293,9.63077 7.833544,10.18582 8.190616,0.70842 0.459754,-6.59061 0.469755,-12.0795 -0.366511,-21.64807 -0.930075,-10.641936 -7.335294,-4.34187 -7.735683,2.05893 -0.400389,6.4008 -0.447715,9.24995 -0.08842,18.88072 z"
       style="fill:#ffffff;fill-opacity:1;stroke:none;stroke-width:0.264583px;stroke-linecap:butt;stroke-linejoin:miter;stroke-opacity:1"
       id="path878" />
  </g>
  <g
     transform="translate(-7.5595236,-34.837364)"
     style="display:inline"
     id="g1098"
     inkscape:groupmode="layer"
     inkscape:label="hand skin tones">
    <path
       sodipodi:nodetypes="ccszzc"
       inkscape:connector-curvature="0"
       id="path1080"
       d="m 71.94461,125.89715 c 0.3593,9.63077 7.83355,10.18582 8.19062,0.70842 0.45975,-6.59061 0.46975,-12.0795 -0.36651,-21.64807 -0.93008,-10.64193 -7.3353,-4.34187 -7.73569,2.05893 -0.40038,6.4008 -0.44771,9.24995 -0.0884,18.88072 z"
       style="fill:#ffddb6;fill-opacity:1;stroke:none;stroke-width:0.263267px;stroke-linecap:butt;stroke-linejoin:miter;stroke-opacity:1" />
    <path
       sodipodi:nodetypes="zsssz"
       inkscape:connector-curvature="0"
       id="path1082"
       d="m 84.9249,93.35152 c -0.23387,10.02189 -0.5533,22.46343 0.60135,27.18667 1.60362,6.55979 7.01583,7.21577 8.0849,-3.42566 1.06908,-10.64144 0.73468,-17.30459 -0.13363,-27.040899 -0.79496,-8.913857 -8.31876,-6.742013 -8.55262,3.279889 z"
       style="fill:#efbe82;fill-opacity:1;stroke:none;stroke-width:0.276338px;stroke-linecap:butt;stroke-linejoin:miter;stroke-opacity:1" />
    <path
       sodipodi:nodetypes="sssss"
       inkscape:connector-curvature="0"
       id="path1084"
       d="m 99.87516,84.33255 c -0.93935,10.59203 -0.7791,20.49616 -0.14918,27.66802 0.62992,7.17188 7.36582,12.62321 8.68255,-0.60043 1.31672,-13.22365 0.4052,-22.326257 -0.22654,-27.560645 -0.92412,-7.657113 -7.28628,-11.014495 -8.30683,0.493055 z"
       style="fill:#da9a63;fill-opacity:1;stroke:none;stroke-width:0.27003px;stroke-linecap:butt;stroke-linejoin:miter;stroke-opacity:1" />
    <path
       sodipodi:nodetypes="sssss"
       inkscape:connector-curvature="0"
       id="path1086"
       d="m 114.52647,92.23059 c -0.76995,11.87557 -0.64881,14.61919 0.25765,20.95252 0.9471,6.61724 6.78837,8.91645 7.97022,-1.03419 1.01097,-8.51185 1.0721,-11.63745 0.24519,-22.018772 -0.66995,-8.410883 -7.89803,-6.768902 -8.47306,2.100442 z"
       style="fill:#a06644;fill-opacity:1;stroke:none;stroke-width:0.269844px;stroke-linecap:butt;stroke-linejoin:miter;stroke-opacity:1" />
    <path
       id="path1088"
       style="fill:#d08449;fill-opacity:1;stroke:none;stroke-width:0.264583px;stroke-linecap:butt;stroke-linejoin:miter;stroke-opacity:1"
       d="m 115.16202,124.86908 c -10.90662,0.1129 -25.519447,2.24346 -29.209644,9.9751 l 0.548286,-2.75539 c -2.01554,1.07377 -2.52499,3.61412 -3.250449,5.718 0,0 0.746549,-2.60048 1.360125,-4.45244 -4.336777,3.36505 -5.758812,4.56708 -7.481712,9.52965 l 0.310057,-2.50063 c -0.242967,0.31519 -0.484005,0.63619 -0.722953,0.96532 -1.028451,1.4166 -2.483636,3.2783 -2.840138,6.22649 -0.116184,0.96083 -0.232616,1.58408 -0.188619,2.02779 1.214827,-1.80185 4.484754,-6.25639 9.695016,-10.49135 3.20149,-2.60221 8.184348,-5.22253 11.461832,-6.4456 11.485039,-4.2859 25.005709,-5.67924 25.005709,-5.67924 0,0 -13.16457,1.46348 -24.604699,6.21357 -3.164726,1.31404 -8.03644,4.03404 -11.172962,6.67556 -2.758316,2.323 -5.320612,5.2148 -7.122562,7.41195 3.091672,-0.29939 7.570081,0.77992 10.184982,-0.90544 -1.029521,0.35705 -1.988027,0.3106 -2.281367,0.32423 -1.286952,0.0599 -3.425852,-0.22959 -3.425852,-0.22959 0,0 2.679975,-0.36236 4.010607,-0.61133 4.929569,-0.89572 8.530281,-4.10614 11.879972,-5.78102 -0.40326,-0.0199 -1.420413,-0.0477 -2.726881,-0.19066 -2.433907,-0.26626 -6.004446,-1.11729 -6.004446,-1.11729 v -5.3e-4 c 0,0 5.111128,0.0288 7.666717,-0.15503 1.793817,-0.12906 4.975451,-0.64889 5.731431,-0.77463 -2.455384,-0.27863 -5.372798,-0.68988 -5.372798,-0.68988 5.156518,0.77914 8.503978,-0.57609 12.695868,-1.93683 -1.95163,0.0418 -4.5862,-0.5994 -4.5862,-0.5994 3.23009,0.13718 6.58887,-0.0644 9.49029,-0.88165 3.96765,-1.42055 9.67998,-4.70362 10.26914,-7.46518 -3.82357,-0.89658 -6.74355,-1.38748 -9.31875,-1.40455 z m -38.212713,22.41878 c -2.411047,2.3437 -5.687743,8.62815 -5.687743,8.62815 0,0 2.126994,-3.53918 4.199462,-5.15084 1.632796,-1.12559 2.041305,-0.42408 4.457297,-0.72011 1.629027,-0.4637 2.405023,-1.02358 3.373851,-1.65044 -3.672428,0.40827 -6.020181,-1.04192 -6.342867,-1.10676 z"
       sodipodi:nodetypes="cccccccsscsscssccccccsccsccccccccccccc" />
    <path
       sodipodi:nodetypes="cccc"
       inkscape:connector-curvature="0"
       id="path1090"
       d="m 95.73821,163.40997 c 18.68347,-3.97935 20.81331,-13.57626 33.35639,-31.27752 6.61767,-9.52556 14.55207,-5.66966 11.24479,1.79538 -11.70971,19.59161 -18.36851,35.20666 -44.60118,29.48214 z"
       style="fill:#6d3504;fill-opacity:1;stroke:none;stroke-width:0.264583px;stroke-linecap:butt;stroke-linejoin:miter;stroke-opacity:1" />
    <path
       sodipodi:nodetypes="scsss"
       inkscape:connector-curvature="0"
       id="path1092"
       d="m 87.23374,152.73215 c -4.34672,2.83481 -4.91369,5.85863 1.13393,6.2366 6.04762,0.37798 17.83481,-5.14297 21.80356,-9.11172 3.96875,-3.96875 2.17337,-10.29985 -5.57514,-7.18154 -7.74851,3.1183 -15.59252,8.90243 -17.36235,10.05666 z"
       style="fill:#8e4e1c;fill-opacity:1;stroke:none;stroke-width:0.264583px;stroke-linecap:butt;stroke-linejoin:miter;stroke-opacity:1" />
    <path
       sodipodi:nodetypes="cssc"
       inkscape:connector-curvature="0"
       id="path1094"
       d="m 103.74643,210.07255 c 5.21176,-22.18337 8.77403,-22.51942 11.714,-31.47295 2.93997,-8.95353 -3.0736,-17.23889 -8.68626,-5.34539 -5.61266,11.89349 -3.02774,36.81834 -3.02774,36.81834 z"
       style="fill:#45250e;fill-opacity:1;stroke:none;stroke-width:0.264583px;stroke-linecap:butt;stroke-linejoin:miter;stroke-opacity:1" />
    <path
       sodipodi:nodetypes="scscs"
       inkscape:connector-curvature="0"
       id="path1096"
       d="m 88.59985,167.77518 c 10.89483,17.67385 7.76425,41.83488 7.76425,41.83488 0,0 -0.65756,-4.78383 -3.19299,-11.6033 -2.53543,-6.81947 -6.94874,-15.67457 -14.46023,-23.81711 -6.13382,-7.71525 3.87804,-16.16554 9.88897,-6.41447 z"
       style="fill:#522101;fill-opacity:1;stroke:none;stroke-width:0.264583px;stroke-linecap:butt;stroke-linejoin:miter;stroke-opacity:1" />
  </g>
  <g
     sodipodi:insensitive="true"
     transform="translate(-7.5595236,-34.837364)"
     style="display:none"
     id="g1172"
     inkscape:groupmode="layer"
     inkscape:label="hand pride tones">
    <path
       sodipodi:nodetypes="ccszzc"
       inkscape:connector-curvature="0"
       id="path1154"
       d="m 71.944608,125.89715 c 0.359293,9.63077 7.833544,10.18582 8.190616,0.70842 0.459754,-6.59061 0.469755,-12.0795 -0.366511,-21.64807 -0.930075,-10.641936 -7.335294,-4.34187 -7.735683,2.05893 -0.400389,6.4008 -0.447715,9.24995 -0.08842,18.88072 z"
       style="fill:#fed701;fill-opacity:1;stroke:none;stroke-width:0.263267px;stroke-linecap:butt;stroke-linejoin:miter;stroke-opacity:1" />
    <path
       sodipodi:nodetypes="zsssz"
       inkscape:connector-curvature="0"
       id="path1156"
       d="m 84.924892,93.351513 c -0.233862,10.021897 -0.553298,22.463437 0.601356,27.186677 1.603618,6.55979 7.015824,7.21577 8.084902,-3.42566 1.069078,-10.64144 0.734671,-17.30459 -0.133634,-27.040903 -0.794956,-8.913857 -8.318761,-6.742013 -8.552624,3.279886 z"
       style="fill:#6dc002;fill-opacity:1;stroke:none;stroke-width:0.276338px;stroke-linecap:butt;stroke-linejoin:miter;stroke-opacity:1" />
    <path
       sodipodi:nodetypes="sssss"
       inkscape:connector-curvature="0"
       id="path1158"
       d="m 99.875159,84.332546 c -0.939351,10.592029 -0.779106,20.496164 -0.149182,27.668024 0.629923,7.17188 7.365823,12.62321 8.682553,-0.60043 1.31672,-13.223655 0.4052,-22.326261 -0.22654,-27.560649 -0.92412,-7.657113 -7.28628,-11.014495 -8.306831,0.493055 z"
       style="fill:#275e9a;fill-opacity:1;stroke:none;stroke-width:0.27003px;stroke-linecap:butt;stroke-linejoin:miter;stroke-opacity:1" />
    <path
       sodipodi:nodetypes="sssss"
       inkscape:connector-curvature="0"
       id="path1160"
       d="m 114.52647,92.230584 c -0.76995,11.875576 -0.64881,14.619196 0.25765,20.952526 0.9471,6.61724 6.78837,8.91645 7.97022,-1.03419 1.01097,-8.51185 1.0721,-11.63745 0.24519,-22.018776 -0.66995,-8.410883 -7.89803,-6.768902 -8.47306,2.10044 z"
       style="fill:#4f0066;fill-opacity:1;stroke:none;stroke-width:0.269844px;stroke-linecap:butt;stroke-linejoin:miter;stroke-opacity:1" />
    <path
       sodipodi:nodetypes="ccccc"
       inkscape:connector-curvature="0"
       id="path1162"
       d="m 75.138502,144.66235 c -3.960777,5.3688 -4.252231,13.22917 3.590776,6.61459 10.461386,-8.03072 19.665435,-13.33668 36.285712,-18.01056 8.59895,-1.6064 11.33928,-10.01638 -3.3073,-8.40998 -13.76175,1.78874 -28.837046,9.52164 -36.569188,19.80595 z"
       style="fill:#fe991d;fill-opacity:1;stroke:none;stroke-width:0.264583px;stroke-linecap:butt;stroke-linejoin:miter;stroke-opacity:1" />
    <path
       sodipodi:nodetypes="cccc"
       inkscape:connector-curvature="0"
       id="path1164"
       d="m 95.738205,163.40997 c 18.683475,-3.97935 20.813315,-13.57626 33.356395,-31.27752 6.61767,-9.52556 14.55207,-5.66966 11.24479,1.79538 -11.70971,19.59161 -18.36851,35.20666 -44.601185,29.48214 z"
       style="fill:#603812;fill-opacity:1;stroke:none;stroke-width:0.264583px;stroke-linecap:butt;stroke-linejoin:miter;stroke-opacity:1" />
    <path
       sodipodi:nodetypes="scsss"
       inkscape:connector-curvature="0"
       id="path1166"
       d="m 87.23374,152.73215 c -4.346724,2.83481 -4.913691,5.85863 1.13393,6.2366 6.047618,0.37798 17.83481,-5.14297 21.80356,-9.11172 3.96875,-3.96875 2.17337,-10.29985 -5.57514,-7.18154 -7.748514,3.1183 -15.59252,8.90243 -17.36235,10.05666 z"
       style="fill:#d2480b;fill-opacity:1;stroke:none;stroke-width:0.264583px;stroke-linecap:butt;stroke-linejoin:miter;stroke-opacity:1" />
    <path
       sodipodi:nodetypes="cssc"
       inkscape:connector-curvature="0"
       id="path1168"
       d="m 103.74643,210.07255 c 5.21176,-22.18337 8.77403,-22.51942 11.714,-31.47295 2.93997,-8.95353 -3.0736,-17.23889 -8.68626,-5.34539 -5.61266,11.89349 -3.02774,36.81834 -3.02774,36.81834 z"
       style="fill:#deaa87;fill-opacity:1;stroke:none;stroke-width:0.264583px;stroke-linecap:butt;stroke-linejoin:miter;stroke-opacity:1" />
    <path
       sodipodi:nodetypes="scscs"
       inkscape:connector-curvature="0"
       id="path1170"
       d="m 88.599847,167.77518 c 10.89483,17.67385 7.764248,41.83488 7.764248,41.83488 0,0 -0.65756,-4.78383 -3.192992,-11.6033 -2.535432,-6.81947 -6.948738,-15.67457 -14.460228,-23.81711 -6.133821,-7.71525 3.878045,-16.16554 9.888972,-6.41447 z"
       style="fill:#a05a2c;fill-opacity:1;stroke:none;stroke-width:0.264583px;stroke-linecap:butt;stroke-linejoin:miter;stroke-opacity:1" />
  </g>
  <g
     sodipodi:insensitive="true"
     transform="translate(-7.5595236,-34.837364)"
     style="display:none"
     id="g970"
     inkscape:groupmode="layer"
     inkscape:label="hand skin tone gradients">
    <path
       inkscape:connector-curvature="0"
       d="m 95.738205,163.40997 c 18.683475,-3.97935 20.813315,-13.57626 33.356395,-31.27752 6.61767,-9.52556 14.55207,-5.66966 11.24479,1.79538 -11.70971,19.59161 -18.36851,35.20666 -44.601185,29.48214 z M 87.23374,152.73215 c -4.346724,2.83481 -4.913691,5.85863 1.13393,6.2366 6.047618,0.37798 17.83481,-5.14297 21.80356,-9.11172 3.96875,-3.96875 2.17337,-10.29985 -5.57514,-7.18154 -7.748514,3.1183 -15.59252,8.90243 -17.36235,10.05666 z m -12.095238,-8.0698 c -3.960777,5.3688 -4.252231,13.22917 3.590776,6.61459 10.461386,-8.03072 19.665435,-13.33668 36.285712,-18.01056 8.59895,-1.6064 11.33928,-10.01638 -3.3073,-8.40998 -13.76175,1.78874 -28.837046,9.52164 -36.569188,19.80595 z m 28.607928,65.4102 c 5.21176,-22.18337 8.77403,-22.51942 11.714,-31.47295 2.93997,-8.95353 -3.0736,-17.23889 -8.68626,-5.34539 -5.61266,11.89349 -3.02774,36.81834 -3.02774,36.81834 z M 88.599847,167.77518 c 10.89483,17.67385 7.764248,41.83488 7.764248,41.83488 0,0 -0.65756,-4.78383 -3.192992,-11.6033 -2.535432,-6.81947 -6.948738,-15.67457 -14.460228,-23.81711 -6.133821,-7.71525 3.878045,-16.16554 9.888972,-6.41447 z M 114.52647,92.230584 c -0.76995,11.875576 -0.64881,14.619196 0.25765,20.952526 0.9471,6.61724 6.78837,8.91645 7.97022,-1.03419 1.01097,-8.51185 1.0721,-11.63745 0.24519,-22.018776 -0.66995,-8.410883 -7.89803,-6.768902 -8.47306,2.10044 z M 99.875159,84.332546 c -0.939351,10.592029 -0.779106,20.496164 -0.149182,27.668024 0.629923,7.17188 7.365823,12.62321 8.682553,-0.60043 1.31672,-13.223655 0.4052,-22.326261 -0.22654,-27.560649 -0.92412,-7.657113 -7.28628,-11.014495 -8.306831,0.493055 z m -14.950267,9.018967 c -0.233862,10.021897 -0.553298,22.463437 0.601356,27.186677 1.603618,6.55979 7.015824,7.21577 8.084902,-3.42566 1.069078,-10.64144 0.734671,-17.30459 -0.133634,-27.040903 -0.794956,-8.913857 -8.318761,-6.742013 -8.552624,3.279886 z M 71.944608,125.89715 c 0.359293,9.63077 7.833544,10.18582 8.190616,0.70842 0.459754,-6.59061 0.469755,-12.0795 -0.366511,-21.64807 -0.930075,-10.641936 -7.335294,-4.34187 -7.735683,2.05893 -0.400389,6.4008 -0.447715,9.24995 -0.08842,18.88072 z"
       style="fill:url(#linearGradient1020);fill-opacity:1;stroke:none;stroke-width:0.264583px;stroke-linecap:butt;stroke-linejoin:miter;stroke-opacity:0.944186"
       id="path968" />
  </g>
</svg>
