<?xml version="1.0" encoding="UTF-8" standalone="no"?>
<!-- Created with Inkscape (http://www.inkscape.org/) -->

<svg
   xmlns:dc="http://purl.org/dc/elements/1.1/"
   xmlns:cc="http://creativecommons.org/ns#"
   xmlns:rdf="http://www.w3.org/1999/02/22-rdf-syntax-ns#"
   xmlns:svg="http://www.w3.org/2000/svg"
   xmlns="http://www.w3.org/2000/svg"
   xmlns:xlink="http://www.w3.org/1999/xlink"
   xmlns:sodipodi="http://sodipodi.sourceforge.net/DTD/sodipodi-0.dtd"
   xmlns:inkscape="http://www.inkscape.org/namespaces/inkscape"
   width="193.75601mm"
   height="214.53763mm"
   viewBox="0 0 193.75601 214.53763"
   version="1.1"
   id="svg8"
   inkscape:version="0.92.4 (5da689c313, 2019-01-14)"
   sodipodi:docname="aran.svg"
   inkscape:export-filename="C:\Users\heardp\skin-tones-pride-black-bg.png"
   inkscape:export-xdpi="300"
   inkscape:export-ydpi="300">
  <defs
     id="defs2">
    <linearGradient
       inkscape:collect="always"
       id="linearGradient1018">
      <stop
         style="stop-color:#fee2c1;stop-opacity:1"
         offset="0"
         id="stop1014" />
      <stop
         id="stop1032"
         offset="0.30372766"
         style="stop-color:#f4c18c;stop-opacity:1" />
      <stop
         style="stop-color:#db9558;stop-opacity:1"
         offset="0.51456821"
         id="stop1054" />
      <stop
         id="stop1056"
         offset="0.67831892"
         style="stop-color:#a06644;stop-opacity:1" />
      <stop
         style="stop-color:#7b4c2e;stop-opacity:1;"
         offset="0.78114396"
         id="stop1159" />
      <stop
         style="stop-color:#2f1600;stop-opacity:1"
         offset="1"
         id="stop1016" />
    </linearGradient>
    <clipPath
       clipPathUnits="userSpaceOnUse"
       id="clipPath1222">
      <path
         id="path1224"
         style="display:inline;fill:#ffffff;fill-opacity:1;stroke:none;stroke-width:0.26458332px;stroke-linecap:butt;stroke-linejoin:miter;stroke-opacity:1"
         d="m -168.17059,89.069442 c -17.67385,10.894827 -41.83488,7.764248 -41.83488,7.764248 0,0 4.78383,-0.657561 11.6033,-3.192994 6.81947,-2.535431 15.67457,-6.948737 23.81711,-14.460228 7.71525,-6.13382 16.16554,3.878045 6.41447,9.888974 z m -42.29737,15.146588 c 22.18337,5.21176 22.51942,8.77403 31.47295,11.71399 8.95353,2.93998 17.23889,-3.07359 5.34539,-8.68626 -11.89349,-5.61265 -36.81834,-3.02773 -36.81834,-3.02773 z m 57.3404,-16.512695 c -2.83481,-4.346726 -5.85862,-4.913691 -6.2366,1.13393 -0.37798,6.047618 5.14297,17.834815 9.11172,21.803565 3.96875,3.96875 10.29985,2.17337 7.18154,-5.57514 -3.1183,-7.748519 -8.90243,-15.592526 -10.05666,-17.362355 z m -10.67782,8.504465 c 3.97935,18.68348 13.57626,20.81332 31.27752,33.3564 9.52556,6.61767 5.66966,14.55207 -1.79537,11.24479 -19.59162,-11.70971 -35.20667,-18.36851 -29.48215,-44.60119 z m 18.74762,-20.599705 c -5.3688,-3.960775 -13.22917,-4.25223 -6.61458,3.590777 8.03071,10.461387 13.33668,19.665437 18.01055,36.285718 1.60641,8.59895 10.01638,11.33928 8.40999,-3.3073 -1.78875,-13.761752 -9.52165,-28.837051 -19.80596,-36.569195 z m 52.431768,39.387975 c -11.875578,-0.76995 -14.619198,-0.64881 -20.952518,0.25765 -6.61724,0.9471 -8.91646,6.78836 1.03419,7.97022 8.51184,1.01097 11.63744,1.0721 22.018768,0.24519 8.410882,-0.66995 6.768899,-7.89803 -2.10044,-8.47306 z m 7.89804,-14.65132 c -10.59203,-0.93935 -20.496168,-0.779102 -27.668028,-0.14918 -7.17188,0.62993 -12.62321,7.36583 0.60043,8.68255 13.223656,1.31672 22.326267,0.40521 27.560646,-0.22653 7.657116,-0.92412 11.014499,-7.28629 -0.493048,-8.30684 z m -9.018971,-14.950265 c -10.021897,-0.23386 -22.463427,-0.553297 -27.186677,0.601356 -6.55979,1.603618 -7.21577,7.015824 3.42567,8.084902 10.64143,1.069078 17.30458,0.734671 27.040898,-0.133633 8.913852,-0.794957 6.742009,-8.318762 -3.279891,-8.552625 z M -126.29256,72.414201 c -9.63077,0.359294 -10.18582,7.833546 -0.70842,8.190617 6.59061,0.459753 12.0795,0.469754 21.64808,-0.366512 10.641928,-0.930074 4.34186,-7.335292 -2.05894,-7.735681 -6.4008,-0.400391 -9.24995,-0.447717 -18.88072,-0.08842 z"
         inkscape:connector-curvature="0" />
    </clipPath>
    <linearGradient
       inkscape:collect="always"
       xlink:href="#linearGradient1018"
       id="linearGradient1020"
       x1="140.37222"
       y1="208.84579"
       x2="71.892235"
       y2="77.126579"
       gradientUnits="userSpaceOnUse" />
  </defs>
  <sodipodi:namedview
     id="base"
     pagecolor="#ffffff"
     bordercolor="#666666"
     borderopacity="1.0"
     inkscape:pageopacity="0.0"
     inkscape:pageshadow="2"
     inkscape:zoom="0.7"
     inkscape:cx="544.88142"
     inkscape:cy="352.20327"
     inkscape:document-units="mm"
     inkscape:current-layer="g1163"
     showgrid="false"
     inkscape:window-width="1920"
     inkscape:window-height="1017"
     inkscape:window-x="-8"
     inkscape:window-y="32"
     inkscape:window-maximized="1"
     showguides="true"
     inkscape:guide-bbox="true" />
  <metadata
     id="metadata5">
    <rdf:RDF>
      <cc:Work
         rdf:about="">
        <dc:format>image/svg+xml</dc:format>
        <dc:type
           rdf:resource="http://purl.org/dc/dcmitype/StillImage" />
        <dc:title />
      </cc:Work>
    </rdf:RDF>
  </metadata>
  <g
     inkscape:groupmode="layer"
     id="layer2"
     inkscape:label="bg black"
     style="display:none"
     transform="translate(-7.5595236,-34.837364)">
    <rect
       style="opacity:1;fill:#000000;fill-opacity:1;stroke:none;stroke-width:0.60000002;stroke-linejoin:bevel;stroke-miterlimit:4;stroke-dasharray:none;stroke-opacity:1;paint-order:markers fill stroke"
       id="rect905"
       width="194.51198"
       height="213.78166"
       x="6.8035712"
       y="35.593319"
       inkscape:export-filename="C:\Users\heardp\rect905.png"
       inkscape:export-xdpi="300"
       inkscape:export-ydpi="300" />
  </g>
  <g
     transform="translate(-7.5595236,-34.837364)"
     style="display:none"
     inkscape:label="bg white"
     id="g1163"
     inkscape:groupmode="layer">
    <rect
       inkscape:export-ydpi="300"
       inkscape:export-xdpi="300"
       inkscape:export-filename="C:\Users\heardp\rect905.png"
       y="35.593319"
       x="6.8035712"
       height="213.78166"
       width="194.51198"
       id="rect1161"
       style="opacity:1;fill:#ffffff;fill-opacity:1;stroke:none;stroke-width:0.60000002;stroke-linejoin:bevel;stroke-miterlimit:4;stroke-dasharray:none;stroke-opacity:1;paint-order:markers fill stroke" />
  </g>
  <g
     inkscape:label="hand black"
     inkscape:groupmode="layer"
     id="layer1"
     style="display:none"
     transform="translate(-7.5595236,-34.837364)">
    <path
       style="fill:#000000;fill-opacity:1;stroke:none;stroke-width:0.26326674px;stroke-linecap:butt;stroke-linejoin:miter;stroke-opacity:1"
       d="m 71.944608,125.89715 c 0.359293,9.63077 7.833544,10.18582 8.190616,0.70842 0.459754,-6.59061 0.469755,-12.0795 -0.366511,-21.64807 -0.930075,-10.641936 -7.335294,-4.34187 -7.735683,2.05893 -0.400389,6.4008 -0.447715,9.24995 -0.08842,18.88072 z"
       id="path873"
       inkscape:connector-curvature="0"
       sodipodi:nodetypes="ccszzc" />
    <path
       style="fill:#000000;fill-opacity:1;stroke:none;stroke-width:0.27633846px;stroke-linecap:butt;stroke-linejoin:miter;stroke-opacity:1"
       d="m 84.924892,93.351513 c -0.233862,10.021897 -0.553298,22.463437 0.601356,27.186677 1.603618,6.55979 7.015824,7.21577 8.084902,-3.42566 1.069078,-10.64144 0.734671,-17.30459 -0.133634,-27.040903 -0.794956,-8.913857 -8.318761,-6.742013 -8.552624,3.279886 z"
       id="path890"
       inkscape:connector-curvature="0"
       sodipodi:nodetypes="zsssz" />
    <path
       style="fill:#000000;fill-opacity:1;stroke:none;stroke-width:0.27002978px;stroke-linecap:butt;stroke-linejoin:miter;stroke-opacity:1"
       d="m 99.875159,84.332546 c -0.939351,10.592029 -0.779106,20.496164 -0.149182,27.668024 0.629923,7.17188 7.365823,12.62321 8.682553,-0.60043 1.31672,-13.223655 0.4052,-22.326261 -0.22654,-27.560649 -0.92412,-7.657113 -7.28628,-11.014495 -8.306831,0.493055 z"
       id="path892"
       inkscape:connector-curvature="0"
       sodipodi:nodetypes="sssss" />
    <path
       style="fill:#000000;fill-opacity:1;stroke:none;stroke-width:0.269844px;stroke-linecap:butt;stroke-linejoin:miter;stroke-opacity:1"
       d="m 114.52647,92.230584 c -0.76995,11.875576 -0.64881,14.619196 0.25765,20.952526 0.9471,6.61724 6.78837,8.91645 7.97022,-1.03419 1.01097,-8.51185 1.0721,-11.63745 0.24519,-22.018776 -0.66995,-8.410883 -7.89803,-6.768902 -8.47306,2.10044 z"
       id="path894"
       inkscape:connector-curvature="0"
       sodipodi:nodetypes="sssss" />
    <path
       style="fill:#000000;fill-opacity:1;stroke:none;stroke-width:0.26458332px;stroke-linecap:butt;stroke-linejoin:miter;stroke-opacity:1"
       d="m 75.138502,144.66235 c -3.960777,5.3688 -4.252231,13.22917 3.590776,6.61459 10.461386,-8.03072 19.665435,-13.33668 36.285712,-18.01056 8.59895,-1.6064 11.33928,-10.01638 -3.3073,-8.40998 -13.76175,1.78874 -28.837046,9.52164 -36.569188,19.80595 z"
       id="path825"
       inkscape:connector-curvature="0"
       sodipodi:nodetypes="ccccc" />
    <path
       style="fill:#000000;fill-opacity:1;stroke:none;stroke-width:0.26458332px;stroke-linecap:butt;stroke-linejoin:miter;stroke-opacity:1"
       d="m 95.738205,163.40997 c 18.683475,-3.97935 20.813315,-13.57626 33.356395,-31.27752 6.61767,-9.52556 14.55207,-5.66966 11.24479,1.79538 -11.70971,19.59161 -18.36851,35.20666 -44.601185,29.48214 z"
       id="path827"
       inkscape:connector-curvature="0"
       sodipodi:nodetypes="cccc" />
    <path
       style="fill:#000000;fill-opacity:1;stroke:none;stroke-width:0.26458332px;stroke-linecap:butt;stroke-linejoin:miter;stroke-opacity:1"
       d="m 87.23374,152.73215 c -4.346724,2.83481 -4.913691,5.85863 1.13393,6.2366 6.047618,0.37798 17.83481,-5.14297 21.80356,-9.11172 3.96875,-3.96875 2.17337,-10.29985 -5.57514,-7.18154 -7.748514,3.1183 -15.59252,8.90243 -17.36235,10.05666 z"
       id="path829"
       inkscape:connector-curvature="0"
       sodipodi:nodetypes="scsss" />
    <path
       style="fill:#000000;fill-opacity:1;stroke:none;stroke-width:0.26458332px;stroke-linecap:butt;stroke-linejoin:miter;stroke-opacity:1"
       d="m 103.74643,210.07255 c 5.21176,-22.18337 8.77403,-22.51942 11.714,-31.47295 2.93997,-8.95353 -3.0736,-17.23889 -8.68626,-5.34539 -5.61266,11.89349 -3.02774,36.81834 -3.02774,36.81834 z"
       id="path831"
       inkscape:connector-curvature="0"
       sodipodi:nodetypes="cssc" />
    <path
       style="fill:#000000;fill-opacity:1;stroke:none;stroke-width:0.26458332px;stroke-linecap:butt;stroke-linejoin:miter;stroke-opacity:1"
       d="m 88.599847,167.77518 c 10.89483,17.67385 7.764248,41.83488 7.764248,41.83488 0,0 -0.65756,-4.78383 -3.192992,-11.6033 -2.535432,-6.81947 -6.948738,-15.67457 -14.460228,-23.81711 -6.133821,-7.71525 3.878045,-16.16554 9.888972,-6.41447 z"
       id="path833"
       inkscape:connector-curvature="0"
       sodipodi:nodetypes="scscs" />
  </g>
  <g
     style="display:none"
     id="g880"
     inkscape:groupmode="layer"
     inkscape:label="hand white"
     transform="translate(-7.5595236,-34.837364)">
    <path
       id="path878"
       style="fill:#ffffff;fill-opacity:1;stroke:none;stroke-width:0.26458332px;stroke-linecap:butt;stroke-linejoin:miter;stroke-opacity:1"
       d="m 88.599847,167.77518 c 10.89483,17.67385 7.764248,41.83488 7.764248,41.83488 0,0 -0.65756,-4.78383 -3.192992,-11.6033 -2.535432,-6.81947 -6.948738,-15.67457 -14.460228,-23.81711 -6.133821,-7.71525 3.878045,-16.16554 9.888972,-6.41447 z m 15.146583,42.29737 c 5.21176,-22.18337 8.77403,-22.51942 11.714,-31.47295 2.93997,-8.95353 -3.0736,-17.23889 -8.68626,-5.34539 -5.61266,11.89349 -3.02774,36.81834 -3.02774,36.81834 z m -16.51269,-57.3404 c -4.346724,2.83481 -4.913691,5.85863 1.13393,6.2366 6.047618,0.37798 17.83481,-5.14297 21.80356,-9.11172 3.96875,-3.96875 2.17337,-10.29985 -5.57514,-7.18154 -7.748514,3.1183 -15.59252,8.90243 -17.36235,10.05666 z m 8.504465,10.67782 c 18.683475,-3.97935 20.813315,-13.57626 33.356395,-31.27752 6.61767,-9.52556 14.55207,-5.66966 11.24479,1.79538 -11.70971,19.59161 -18.36851,35.20666 -44.601185,29.48214 z M 75.138502,144.66235 c -3.960777,5.3688 -4.252231,13.22917 3.590776,6.61459 10.461386,-8.03072 19.665435,-13.33668 36.285712,-18.01056 8.59895,-1.6064 11.33928,-10.01638 -3.3073,-8.40998 -13.76175,1.78874 -28.837046,9.52164 -36.569188,19.80595 z M 114.52647,92.230584 c -0.76995,11.875576 -0.64881,14.619196 0.25765,20.952526 0.9471,6.61724 6.78837,8.91645 7.97022,-1.03419 1.01097,-8.51185 1.0721,-11.63745 0.24519,-22.018776 -0.66995,-8.410883 -7.89803,-6.768902 -8.47306,2.10044 z M 99.875159,84.332546 c -0.939351,10.592029 -0.779106,20.496164 -0.149182,27.668024 0.629923,7.17188 7.365823,12.62321 8.682553,-0.60043 1.31672,-13.223655 0.4052,-22.326261 -0.22654,-27.560649 -0.92412,-7.657113 -7.28628,-11.014495 -8.306831,0.493055 z m -14.950267,9.018967 c -0.233862,10.021897 -0.553298,22.463437 0.601356,27.186677 1.603618,6.55979 7.015824,7.21577 8.084902,-3.42566 1.069078,-10.64144 0.734671,-17.30459 -0.133634,-27.040903 -0.794956,-8.913857 -8.318761,-6.742013 -8.552624,3.279886 z M 71.944608,125.89715 c 0.359293,9.63077 7.833544,10.18582 8.190616,0.70842 0.459754,-6.59061 0.469755,-12.0795 -0.366511,-21.64807 -0.930075,-10.641936 -7.335294,-4.34187 -7.735683,2.05893 -0.400389,6.4008 -0.447715,9.24995 -0.08842,18.88072 z"
       inkscape:connector-curvature="0" />
  </g>
  <g
     inkscape:label="hand skin tones"
     inkscape:groupmode="layer"
     id="g1098"
     style="display:inline"
     transform="translate(-7.5595236,-34.837364)">
    <path
       style="fill:#f4c18c;fill-opacity:1;stroke:none;stroke-width:0.26326674px;stroke-linecap:butt;stroke-linejoin:miter;stroke-opacity:1"
       d="m 71.94461,125.89715 c 0.3593,9.63077 7.83355,10.18582 8.19062,0.70842 0.45975,-6.59061 0.46975,-12.0795 -0.36651,-21.64807 -0.93008,-10.64193 -7.3353,-4.34187 -7.73569,2.05893 -0.40038,6.4008 -0.44771,9.24995 -0.0884,18.88072 z"
       id="path1080"
       inkscape:connector-curvature="0"
       sodipodi:nodetypes="ccszzc" />
    <path
       style="fill:#e4b174;fill-opacity:1;stroke:none;stroke-width:0.27633846px;stroke-linecap:butt;stroke-linejoin:miter;stroke-opacity:1"
       d="m 84.9249,93.35152 c -0.23387,10.02189 -0.5533,22.46343 0.60135,27.18667 1.60362,6.55979 7.01583,7.21577 8.0849,-3.42566 1.06908,-10.64144 0.73468,-17.30459 -0.13363,-27.040899 -0.79496,-8.913857 -8.31876,-6.742013 -8.55262,3.279889 z"
       id="path1082"
       inkscape:connector-curvature="0"
       sodipodi:nodetypes="zsssz" />
    <path
       style="fill:#db9558;fill-opacity:1;stroke:none;stroke-width:0.27002978px;stroke-linecap:butt;stroke-linejoin:miter;stroke-opacity:1"
       d="m 99.87516,84.33255 c -0.93935,10.59203 -0.7791,20.49616 -0.14918,27.66802 0.62992,7.17188 7.36582,12.62321 8.68255,-0.60043 1.31672,-13.22365 0.4052,-22.326257 -0.22654,-27.560645 -0.92412,-7.657113 -7.28628,-11.014495 -8.30683,0.493055 z"
       id="path1084"
       inkscape:connector-curvature="0"
       sodipodi:nodetypes="sssss" />
    <path
       style="fill:#a06644;fill-opacity:1;stroke:none;stroke-width:0.269844px;stroke-linecap:butt;stroke-linejoin:miter;stroke-opacity:1"
       d="m 114.52647,92.23059 c -0.76995,11.87557 -0.64881,14.61919 0.25765,20.95252 0.9471,6.61724 6.78837,8.91645 7.97022,-1.03419 1.01097,-8.51185 1.0721,-11.63745 0.24519,-22.018772 -0.66995,-8.410883 -7.89803,-6.768902 -8.47306,2.100442 z"
       id="path1086"
       inkscape:connector-curvature="0"
       sodipodi:nodetypes="sssss" />
    <path
       style="fill:#fee2c1;fill-opacity:1;stroke:none;stroke-width:0.26458332px;stroke-linecap:butt;stroke-linejoin:miter;stroke-opacity:1"
       d="m 75.13851,144.66235 c -3.96078,5.3688 -4.25223,13.22917 3.59077,6.61459 10.46139,-8.03072 19.66544,-13.33668 36.28571,-18.01056 8.59895,-1.6064 11.33928,-10.01638 -3.3073,-8.40998 -13.76175,1.78874 -28.83704,9.52164 -36.56918,19.80595 z"
       id="path1088"
       inkscape:connector-curvature="0"
       sodipodi:nodetypes="ccccc" />
    <path
       style="fill:#6d3504;fill-opacity:1;stroke:none;stroke-width:0.26458332px;stroke-linecap:butt;stroke-linejoin:miter;stroke-opacity:1"
       d="m 95.73821,163.40997 c 18.68347,-3.97935 20.81331,-13.57626 33.35639,-31.27752 6.61767,-9.52556 14.55207,-5.66966 11.24479,1.79538 -11.70971,19.59161 -18.36851,35.20666 -44.60118,29.48214 z"
       id="path1090"
       inkscape:connector-curvature="0"
       sodipodi:nodetypes="cccc" />
    <path
       style="fill:#a06030;fill-opacity:1;stroke:none;stroke-width:0.26458332px;stroke-linecap:butt;stroke-linejoin:miter;stroke-opacity:1"
       d="m 87.23374,152.73215 c -4.34672,2.83481 -4.91369,5.85863 1.13393,6.2366 6.04762,0.37798 17.83481,-5.14297 21.80356,-9.11172 3.96875,-3.96875 2.17337,-10.29985 -5.57514,-7.18154 -7.74851,3.1183 -15.59252,8.90243 -17.36235,10.05666 z"
       id="path1092"
       inkscape:connector-curvature="0"
       sodipodi:nodetypes="scsss" />
    <path
       style="fill:#2f1600;fill-opacity:1;stroke:none;stroke-width:0.26458332px;stroke-linecap:butt;stroke-linejoin:miter;stroke-opacity:1"
       d="m 103.74643,210.07255 c 5.21176,-22.18337 8.77403,-22.51942 11.714,-31.47295 2.93997,-8.95353 -3.0736,-17.23889 -8.68626,-5.34539 -5.61266,11.89349 -3.02774,36.81834 -3.02774,36.81834 z"
       id="path1094"
       inkscape:connector-curvature="0"
       sodipodi:nodetypes="cssc" />
    <path
       style="fill:#522101;fill-opacity:1;stroke:none;stroke-width:0.26458332px;stroke-linecap:butt;stroke-linejoin:miter;stroke-opacity:1"
       d="m 88.59985,167.77518 c 10.89483,17.67385 7.76425,41.83488 7.76425,41.83488 0,0 -0.65756,-4.78383 -3.19299,-11.6033 -2.53543,-6.81947 -6.94874,-15.67457 -14.46023,-23.81711 -6.13382,-7.71525 3.87804,-16.16554 9.88897,-6.41447 z"
       id="path1096"
       inkscape:connector-curvature="0"
       sodipodi:nodetypes="scscs" />
  </g>
  <g
     inkscape:label="hand pride tones"
     inkscape:groupmode="layer"
     id="g1172"
     style="display:none"
     transform="translate(-7.5595236,-34.837364)">
    <path
       style="fill:#fed701;fill-opacity:1;stroke:none;stroke-width:0.26326674px;stroke-linecap:butt;stroke-linejoin:miter;stroke-opacity:1"
       d="m 71.944608,125.89715 c 0.359293,9.63077 7.833544,10.18582 8.190616,0.70842 0.459754,-6.59061 0.469755,-12.0795 -0.366511,-21.64807 -0.930075,-10.641936 -7.335294,-4.34187 -7.735683,2.05893 -0.400389,6.4008 -0.447715,9.24995 -0.08842,18.88072 z"
       id="path1154"
       inkscape:connector-curvature="0"
       sodipodi:nodetypes="ccszzc" />
    <path
       style="fill:#6dc002;fill-opacity:1;stroke:none;stroke-width:0.27633846px;stroke-linecap:butt;stroke-linejoin:miter;stroke-opacity:1"
       d="m 84.924892,93.351513 c -0.233862,10.021897 -0.553298,22.463437 0.601356,27.186677 1.603618,6.55979 7.015824,7.21577 8.084902,-3.42566 1.069078,-10.64144 0.734671,-17.30459 -0.133634,-27.040903 -0.794956,-8.913857 -8.318761,-6.742013 -8.552624,3.279886 z"
       id="path1156"
       inkscape:connector-curvature="0"
       sodipodi:nodetypes="zsssz" />
    <path
       style="fill:#275e9a;fill-opacity:1;stroke:none;stroke-width:0.27002978px;stroke-linecap:butt;stroke-linejoin:miter;stroke-opacity:1"
       d="m 99.875159,84.332546 c -0.939351,10.592029 -0.779106,20.496164 -0.149182,27.668024 0.629923,7.17188 7.365823,12.62321 8.682553,-0.60043 1.31672,-13.223655 0.4052,-22.326261 -0.22654,-27.560649 -0.92412,-7.657113 -7.28628,-11.014495 -8.306831,0.493055 z"
       id="path1158"
       inkscape:connector-curvature="0"
       sodipodi:nodetypes="sssss" />
    <path
       style="fill:#4f0066;fill-opacity:1;stroke:none;stroke-width:0.269844px;stroke-linecap:butt;stroke-linejoin:miter;stroke-opacity:1"
       d="m 114.52647,92.230584 c -0.76995,11.875576 -0.64881,14.619196 0.25765,20.952526 0.9471,6.61724 6.78837,8.91645 7.97022,-1.03419 1.01097,-8.51185 1.0721,-11.63745 0.24519,-22.018776 -0.66995,-8.410883 -7.89803,-6.768902 -8.47306,2.10044 z"
       id="path1160"
       inkscape:connector-curvature="0"
       sodipodi:nodetypes="sssss" />
    <path
       style="fill:#fe991d;fill-opacity:1;stroke:none;stroke-width:0.26458332px;stroke-linecap:butt;stroke-linejoin:miter;stroke-opacity:1"
       d="m 75.138502,144.66235 c -3.960777,5.3688 -4.252231,13.22917 3.590776,6.61459 10.461386,-8.03072 19.665435,-13.33668 36.285712,-18.01056 8.59895,-1.6064 11.33928,-10.01638 -3.3073,-8.40998 -13.76175,1.78874 -28.837046,9.52164 -36.569188,19.80595 z"
       id="path1162"
       inkscape:connector-curvature="0"
       sodipodi:nodetypes="ccccc" />
    <path
       style="fill:#603812;fill-opacity:1;stroke:none;stroke-width:0.26458332px;stroke-linecap:butt;stroke-linejoin:miter;stroke-opacity:1"
       d="m 95.738205,163.40997 c 18.683475,-3.97935 20.813315,-13.57626 33.356395,-31.27752 6.61767,-9.52556 14.55207,-5.66966 11.24479,1.79538 -11.70971,19.59161 -18.36851,35.20666 -44.601185,29.48214 z"
       id="path1164"
       inkscape:connector-curvature="0"
       sodipodi:nodetypes="cccc" />
    <path
       style="fill:#d2480b;fill-opacity:1;stroke:none;stroke-width:0.26458332px;stroke-linecap:butt;stroke-linejoin:miter;stroke-opacity:1"
       d="m 87.23374,152.73215 c -4.346724,2.83481 -4.913691,5.85863 1.13393,6.2366 6.047618,0.37798 17.83481,-5.14297 21.80356,-9.11172 3.96875,-3.96875 2.17337,-10.29985 -5.57514,-7.18154 -7.748514,3.1183 -15.59252,8.90243 -17.36235,10.05666 z"
       id="path1166"
       inkscape:connector-curvature="0"
       sodipodi:nodetypes="scsss" />
    <path
       style="fill:#deaa87;fill-opacity:1;stroke:none;stroke-width:0.26458332px;stroke-linecap:butt;stroke-linejoin:miter;stroke-opacity:1"
       d="m 103.74643,210.07255 c 5.21176,-22.18337 8.77403,-22.51942 11.714,-31.47295 2.93997,-8.95353 -3.0736,-17.23889 -8.68626,-5.34539 -5.61266,11.89349 -3.02774,36.81834 -3.02774,36.81834 z"
       id="path1168"
       inkscape:connector-curvature="0"
       sodipodi:nodetypes="cssc" />
    <path
       style="fill:#a05a2c;fill-opacity:1;stroke:none;stroke-width:0.26458332px;stroke-linecap:butt;stroke-linejoin:miter;stroke-opacity:1"
       d="m 88.599847,167.77518 c 10.89483,17.67385 7.764248,41.83488 7.764248,41.83488 0,0 -0.65756,-4.78383 -3.192992,-11.6033 -2.535432,-6.81947 -6.948738,-15.67457 -14.460228,-23.81711 -6.133821,-7.71525 3.878045,-16.16554 9.888972,-6.41447 z"
       id="path1170"
       inkscape:connector-curvature="0"
       sodipodi:nodetypes="scscs" />
  </g>
  <g
     inkscape:label="hand skin tone gradients"
     inkscape:groupmode="layer"
     id="g970"
     style="display:none"
     transform="translate(-7.5595236,-34.837364)">
    <path
       id="path968"
       style="fill:url(#linearGradient1020);fill-opacity:1;stroke:none;stroke-width:0.26458332px;stroke-linecap:butt;stroke-linejoin:miter;stroke-opacity:0.94418604"
       d="m 95.738205,163.40997 c 18.683475,-3.97935 20.813315,-13.57626 33.356395,-31.27752 6.61767,-9.52556 14.55207,-5.66966 11.24479,1.79538 -11.70971,19.59161 -18.36851,35.20666 -44.601185,29.48214 z M 87.23374,152.73215 c -4.346724,2.83481 -4.913691,5.85863 1.13393,6.2366 6.047618,0.37798 17.83481,-5.14297 21.80356,-9.11172 3.96875,-3.96875 2.17337,-10.29985 -5.57514,-7.18154 -7.748514,3.1183 -15.59252,8.90243 -17.36235,10.05666 z m -12.095238,-8.0698 c -3.960777,5.3688 -4.252231,13.22917 3.590776,6.61459 10.461386,-8.03072 19.665435,-13.33668 36.285712,-18.01056 8.59895,-1.6064 11.33928,-10.01638 -3.3073,-8.40998 -13.76175,1.78874 -28.837046,9.52164 -36.569188,19.80595 z m 28.607928,65.4102 c 5.21176,-22.18337 8.77403,-22.51942 11.714,-31.47295 2.93997,-8.95353 -3.0736,-17.23889 -8.68626,-5.34539 -5.61266,11.89349 -3.02774,36.81834 -3.02774,36.81834 z M 88.599847,167.77518 c 10.89483,17.67385 7.764248,41.83488 7.764248,41.83488 0,0 -0.65756,-4.78383 -3.192992,-11.6033 -2.535432,-6.81947 -6.948738,-15.67457 -14.460228,-23.81711 -6.133821,-7.71525 3.878045,-16.16554 9.888972,-6.41447 z M 114.52647,92.230584 c -0.76995,11.875576 -0.64881,14.619196 0.25765,20.952526 0.9471,6.61724 6.78837,8.91645 7.97022,-1.03419 1.01097,-8.51185 1.0721,-11.63745 0.24519,-22.018776 -0.66995,-8.410883 -7.89803,-6.768902 -8.47306,2.10044 z M 99.875159,84.332546 c -0.939351,10.592029 -0.779106,20.496164 -0.149182,27.668024 0.629923,7.17188 7.365823,12.62321 8.682553,-0.60043 1.31672,-13.223655 0.4052,-22.326261 -0.22654,-27.560649 -0.92412,-7.657113 -7.28628,-11.014495 -8.306831,0.493055 z m -14.950267,9.018967 c -0.233862,10.021897 -0.553298,22.463437 0.601356,27.186677 1.603618,6.55979 7.015824,7.21577 8.084902,-3.42566 1.069078,-10.64144 0.734671,-17.30459 -0.133634,-27.040903 -0.794956,-8.913857 -8.318761,-6.742013 -8.552624,3.279886 z M 71.944608,125.89715 c 0.359293,9.63077 7.833544,10.18582 8.190616,0.70842 0.459754,-6.59061 0.469755,-12.0795 -0.366511,-21.64807 -0.930075,-10.641936 -7.335294,-4.34187 -7.735683,2.05893 -0.400389,6.4008 -0.447715,9.24995 -0.08842,18.88072 z"
       inkscape:connector-curvature="0" />
  </g>
</svg>
