<?xml version="1.0" encoding="UTF-8" standalone="no"?>
<!-- Created with Inkscape (http://www.inkscape.org/) -->

<svg
   xmlns:dc="http://purl.org/dc/elements/1.1/"
   xmlns:cc="http://creativecommons.org/ns#"
   xmlns:rdf="http://www.w3.org/1999/02/22-rdf-syntax-ns#"
   xmlns:svg="http://www.w3.org/2000/svg"
   xmlns="http://www.w3.org/2000/svg"
   xmlns:xlink="http://www.w3.org/1999/xlink"
   xmlns:sodipodi="http://sodipodi.sourceforge.net/DTD/sodipodi-0.dtd"
   xmlns:inkscape="http://www.inkscape.org/namespaces/inkscape"
   width="210mm"
   height="297mm"
   viewBox="0 0 210 297"
   version="1.1"
   id="svg8"
   inkscape:version="0.92.4 (5da689c313, 2019-01-14)"
   sodipodi:docname="digital-hour.svg">
  <defs
     id="defs2">
    <linearGradient
       inkscape:collect="always"
       id="linearGradient899">
      <stop
         style="stop-color:#ff2093;stop-opacity:1"
         offset="0"
         id="stop895" />
      <stop
         style="stop-color:#7100dd;stop-opacity:1"
         offset="1"
         id="stop897" />
    </linearGradient>
    <linearGradient
       inkscape:collect="always"
       xlink:href="#linearGradient899"
       id="linearGradient901"
       x1="344.3912"
       y1="441.18536"
       x2="489.12683"
       y2="589.83575"
       gradientUnits="userSpaceOnUse"
       gradientTransform="matrix(0.26458333,0,0,0.26458333,-1.4364579,-1.2042606)" />
  </defs>
  <sodipodi:namedview
     id="base"
     pagecolor="#ffffff"
     bordercolor="#666666"
     borderopacity="1.0"
     inkscape:pageopacity="0.0"
     inkscape:pageshadow="2"
     inkscape:zoom="1.4"
     inkscape:cx="473.98969"
     inkscape:cy="638.50758"
     inkscape:document-units="mm"
     inkscape:current-layer="g983"
     showgrid="false"
     showguides="false"
     inkscape:guide-bbox="true"
     inkscape:window-width="1920"
     inkscape:window-height="1017"
     inkscape:window-x="-8"
     inkscape:window-y="32"
     inkscape:window-maximized="1">
    <sodipodi:guide
       position="51.583019,161.96533"
       orientation="0,1"
       id="guide885"
       inkscape:locked="false" />
    <sodipodi:guide
       position="108.7787,213.01381"
       orientation="1,0"
       id="guide903"
       inkscape:locked="false" />
    <sodipodi:guide
       position="76.1622,120.7634"
       orientation="1,0"
       id="guide913"
       inkscape:locked="false" />
    <sodipodi:guide
       position="141.1741,115.09375"
       orientation="1,0"
       id="guide915"
       inkscape:locked="false" />
    <sodipodi:guide
       position="124.14669,141.85331"
       orientation="0,1"
       id="guide932"
       inkscape:locked="false" />
  </sodipodi:namedview>
  <metadata
     id="metadata5">
    <rdf:RDF>
      <cc:Work
         rdf:about="">
        <dc:format>image/svg+xml</dc:format>
        <dc:type
           rdf:resource="http://purl.org/dc/dcmitype/StillImage" />
        <dc:title />
      </cc:Work>
    </rdf:RDF>
  </metadata>
  <g
     inkscape:groupmode="layer"
     id="layer2"
     inkscape:label="circle"
     style="display:none">
    <circle
       style="opacity:1;fill:#000000;fill-opacity:1;stroke:none;stroke-width:8.58040237;stroke-miterlimit:4;stroke-dasharray:none;stroke-opacity:1"
       id="path837"
       cx="108.71191"
       cy="135.10147"
       r="45.636269"
       inkscape:export-filename="C:\Users\heardp\Desktop\digital-hour-circle.png"
       inkscape:export-xdpi="300"
       inkscape:export-ydpi="300" />
  </g>
  <g
     inkscape:groupmode="layer"
     id="layer3"
     inkscape:label="square"
     style="display:inline">
    <path
       style="opacity:1;fill:#000000;fill-opacity:1;stroke:none;stroke-width:5;stroke-miterlimit:4;stroke-dasharray:none;stroke-opacity:1"
       d="m 76.247255,102.58794 h 65.011905 v 65.0119 H 76.247255 Z"
       id="rect906"
       inkscape:connector-curvature="0"
       inkscape:export-filename="C:\Users\heardp\Desktop\digital-hour-square.png"
       inkscape:export-xdpi="300"
       inkscape:export-ydpi="300" />
  </g>
  <g
     inkscape:label="1:H gradient"
     inkscape:groupmode="layer"
     id="layer1"
     style="display:inline">
    <path
       style="opacity:1;fill:url(#linearGradient901);fill-opacity:1;stroke:none;stroke-width:5;stroke-miterlimit:4;stroke-dasharray:none;stroke-opacity:1"
       d="m 91.543583,115.2589 -2.07119,2.0712 v 15.25539 l 2.07119,2.0712 2.071709,-2.0712 V 117.3301 Z m 17.268717,0 -2.07119,2.0712 v 15.25539 l 2.07119,2.0712 2.07171,-2.0712 V 117.3301 Z m 17.1049,0 -2.0712,2.0712 v 15.25539 l 2.0712,2.0712 2.07171,-2.0712 V 117.3301 Z m -25.70024,8.06979 -2.124939,2.12546 2.124939,2.12493 2.12493,-2.12493 z m 11.75352,9.6573 -2.07119,2.07119 2.07119,2.07171 h 10.99403 l 2.07119,-2.07171 -2.07119,-2.07119 z m -20.426897,2.40569 -2.07119,2.07119 v 15.2554 l 2.07119,2.07119 2.071709,-2.07119 v -15.2554 z m 34.373617,0 -2.0712,2.07119 v 15.2554 l 2.0712,2.07119 2.07171,-2.07119 v -15.2554 z m -17.1049,0.046 -2.07119,2.07119 v 15.25539 l 2.07119,2.0712 2.07171,-2.0712 v -15.25539 z m -8.59534,6.90122 -2.124939,2.12494 2.124939,2.12545 2.12493,-2.12545 z"
       id="rect920"
       inkscape:connector-curvature="0"
       sodipodi:nodetypes="ccccccccccccccccccccccccccccccccccccccccccccccccccccccccccc"
       inkscape:export-filename="C:\Users\heardp\Desktop\digital-hour-circle.png"
       inkscape:export-xdpi="300"
       inkscape:export-ydpi="300" />
  </g>
  <g
     style="display:none"
     inkscape:label="square outline"
     id="g983"
     inkscape:groupmode="layer">
    <path
       inkscape:connector-curvature="0"
       id="path981"
       d="m 76.247255,102.58794 h 65.011905 v 65.0119 H 76.247255 Z"
       style="opacity:1;fill:none;fill-opacity:1;stroke:#000000;stroke-width:4;stroke-miterlimit:4;stroke-dasharray:none;stroke-opacity:1"
       inkscape:export-filename="C:\Users\heardp\Desktop\digital-hour-outline.png"
       inkscape:export-xdpi="300"
       inkscape:export-ydpi="300" />
  </g>
  <g
     style="display:none"
     id="g979"
     inkscape:groupmode="layer"
     inkscape:label="1:H gradient copy">
    <path
       sodipodi:nodetypes="ccccccccccccccccccccccccccccccccccccccccccccccccccccccccccc"
       inkscape:connector-curvature="0"
       id="path977"
       d="m 91.543583,115.2589 -2.07119,2.0712 v 15.25539 l 2.07119,2.0712 2.071709,-2.0712 V 117.3301 Z m 17.268717,0 -2.07119,2.0712 v 15.25539 l 2.07119,2.0712 2.07171,-2.0712 V 117.3301 Z m 17.1049,0 -2.0712,2.0712 v 15.25539 l 2.0712,2.0712 2.07171,-2.0712 V 117.3301 Z m -25.70024,8.06979 -2.124939,2.12546 2.124939,2.12493 2.12493,-2.12493 z m 11.75352,9.6573 -2.07119,2.07119 2.07119,2.07171 h 10.99403 l 2.07119,-2.07171 -2.07119,-2.07119 z m -20.426897,2.40569 -2.07119,2.07119 v 15.2554 l 2.07119,2.07119 2.071709,-2.07119 v -15.2554 z m 34.373617,0 -2.0712,2.07119 v 15.2554 l 2.0712,2.07119 2.07171,-2.07119 v -15.2554 z m -17.1049,0.046 -2.07119,2.07119 v 15.25539 l 2.07119,2.0712 2.07171,-2.0712 v -15.25539 z m -8.59534,6.90122 -2.124939,2.12494 2.124939,2.12545 2.12493,-2.12545 z"
       style="opacity:1;fill:#000000;fill-opacity:1;stroke:none;stroke-width:5;stroke-miterlimit:4;stroke-dasharray:none;stroke-opacity:1"
       inkscape:export-filename="C:\Users\heardp\Desktop\digital-hour-outline.png"
       inkscape:export-xdpi="300"
       inkscape:export-ydpi="300" />
  </g>
</svg>
