<?xml version="1.0" encoding="UTF-8" standalone="no"?>
<!-- Created with Inkscape (http://www.inkscape.org/) -->

<svg
   xmlns:dc="http://purl.org/dc/elements/1.1/"
   xmlns:cc="http://creativecommons.org/ns#"
   xmlns:rdf="http://www.w3.org/1999/02/22-rdf-syntax-ns#"
   xmlns:svg="http://www.w3.org/2000/svg"
   xmlns="http://www.w3.org/2000/svg"
   xmlns:xlink="http://www.w3.org/1999/xlink"
   xmlns:sodipodi="http://sodipodi.sourceforge.net/DTD/sodipodi-0.dtd"
   xmlns:inkscape="http://www.inkscape.org/namespaces/inkscape"
   width="36in"
   height="48in"
   viewBox="0 0 914.4 1219.2"
   version="1.1"
   id="svg8"
   inkscape:version="0.92.4 (5da689c313, 2019-01-14)"
   sodipodi:docname="dtf-logo.svg">
  <defs
     id="defs2">
    <linearGradient
       inkscape:collect="always"
       id="linearGradient4775">
      <stop
         style="stop-color:#38609e;stop-opacity:1"
         offset="0"
         id="stop4771" />
      <stop
         style="stop-color:#5941a1;stop-opacity:0"
         offset="1"
         id="stop4773" />
    </linearGradient>
    <linearGradient
       id="linearGradient4746-3"
       inkscape:collect="always">
      <stop
         id="stop4742"
         offset="0"
         style="stop-color:#38609e;stop-opacity:1" />
      <stop
         id="stop4744"
         offset="1"
         style="stop-color:#5941a1;stop-opacity:1" />
    </linearGradient>
    <linearGradient
       inkscape:collect="always"
       xlink:href="#linearGradient4746-3"
       id="linearGradient4740"
       x1="52.244396"
       y1="81.008545"
       x2="163.5421"
       y2="81.008545"
       gradientUnits="userSpaceOnUse"
       gradientTransform="matrix(0.69461068,0,0,0.69461068,28.700101,-880.02275)" />
    <linearGradient
       inkscape:collect="always"
       xlink:href="#linearGradient4775"
       id="linearGradient4769"
       gradientUnits="userSpaceOnUse"
       x1="98.516258"
       y1="170.2099"
       x2="104.93382"
       y2="164.02684" />
    <linearGradient
       inkscape:collect="always"
       xlink:href="#linearGradient4775"
       id="linearGradient4859"
       gradientUnits="userSpaceOnUse"
       x1="98.516258"
       y1="170.2099"
       x2="104.93382"
       y2="164.02684" />
    <linearGradient
       inkscape:collect="always"
       xlink:href="#linearGradient4746-3"
       id="linearGradient4861"
       gradientUnits="userSpaceOnUse"
       gradientTransform="matrix(0.69461068,0,0,0.69461068,28.700101,-694.95972)"
       x1="52.244396"
       y1="81.008545"
       x2="163.5421"
       y2="81.008545" />
  </defs>
  <sodipodi:namedview
     id="base"
     pagecolor="#ffffff"
     bordercolor="#666666"
     borderopacity="1.0"
     inkscape:pageopacity="0.0"
     inkscape:pageshadow="2"
     inkscape:zoom="0.175"
     inkscape:cx="965.18204"
     inkscape:cy="2711.3398"
     inkscape:document-units="mm"
     inkscape:current-layer="g1308"
     showgrid="false"
     showguides="false"
     inkscape:guide-bbox="true"
     inkscape:window-width="1920"
     inkscape:window-height="1017"
     inkscape:window-x="-8"
     inkscape:window-y="32"
     inkscape:window-maximized="1"
     units="in"
     guidetolerance="20">
    <sodipodi:guide
       position="64.679226,713.0751"
       orientation="1,0"
       id="guide4826"
       inkscape:locked="false" />
    <sodipodi:guide
       position="142.45466,629.15247"
       orientation="1,0"
       id="guide1037"
       inkscape:locked="false" />
    <sodipodi:guide
       position="148.20095,514.15976"
       orientation="0,1"
       id="guide1128"
       inkscape:locked="false" />
    <sodipodi:guide
       position="89.296875,308.52307"
       orientation="1,0"
       id="guide1197"
       inkscape:locked="false" />
  </sodipodi:namedview>
  <metadata
     id="metadata5">
    <rdf:RDF>
      <cc:Work
         rdf:about="">
        <dc:format>image/svg+xml</dc:format>
        <dc:type
           rdf:resource="http://purl.org/dc/dcmitype/StillImage" />
        <dc:title></dc:title>
      </cc:Work>
    </rdf:RDF>
  </metadata>
  <g
     inkscape:groupmode="layer"
     id="layer4"
     inkscape:label="ssc-logo"
     style="display:none"
     transform="translate(0,922.2)"
     sodipodi:insensitive="true">
    <g
       id="g4625"
       transform="matrix(0.77011494,0,0,0.77011494,50.409611,34.201178)">
      <g
         transform="translate(-38.219536,-79.442604)"
         style="display:inline;opacity:1;fill:#000000;fill-opacity:1"
         inkscape:label="circle"
         id="layer3">
        <circle
           inkscape:export-ydpi="96"
           inkscape:export-xdpi="96"
           r="69.757347"
           cy="149.19995"
           cx="107.97688"
           id="path873"
           style="opacity:0.97000002;fill:#000000;fill-opacity:1;stroke-width:0.26458332" />
      </g>
      <g
         transform="translate(-38.219536,-79.442604)"
         style="display:inline"
         inkscape:label="leaf"
         id="layer2">
        <path
           inkscape:export-ydpi="96"
           inkscape:export-xdpi="96"
           sodipodi:nodetypes="csccccccsccccsccccccssccccsscccccccscccccccccccccccccccc"
           inkscape:connector-curvature="0"
           id="path850-9"
           d="m 110.00451,195.90294 c 1.33263,-0.39926 3.00598,-1.84615 3.7322,-3.22709 0.79782,-1.51709 0.79782,-4.11459 0,-5.63169 -3.02098,-5.74453 -11.51505,-4.00139 -11.92568,2.44738 -0.0913,1.43428 7.9e-4,1.91428 0.60509,3.1492 1.40218,2.86594 4.48606,4.19168 7.58839,3.2622 z M 94.979886,180.29091 c 1.75723,-1.13118 4.88505,-2.40113 7.516054,-3.05165 2.74944,-0.67983 8.52312,-0.61095 11.53962,0.13766 2.53091,0.6281 6.02812,2.15118 7.90594,3.44315 l 1.1671,0.803 5.13045,-5.14979 -0.60318,-0.54913 c -0.96557,-0.87905 -3.64101,-2.60395 -5.41987,-3.49427 -4.61689,-2.31076 -8.85911,-3.28809 -14.23331,-3.27909 -5.3218,0.009 -9.681334,1.03468 -14.199414,3.34099 -2.21727,1.13183 -5.94263,3.92899 -5.94263,3.92899 l 5.32536,5.02184 c 0,0 0.96176,-0.60318 1.81388,-1.1517 z m -10.38055,-10.54729 c 4.4069,-3.26752 8.71964,-5.31978 13.96104,-6.64351 10.768464,-2.71961 22.102194,-0.73515 31.292484,5.47909 1.2138,0.82074 2.50889,1.77539 2.87797,2.12145 l 0.67106,0.6292 c 1.72717,-1.73366 5.18149,-5.201 5.18149,-5.201 l -1.27743,-1.1255 c -3.04908,-2.68642 -8.95487,-6.07201 -13.31597,-7.63357 -6.04631,-2.16497 -10.2142,-2.80338 -17.17966,-2.63146 -5.79779,0.1431 -8.686944,0.61707 -13.425814,2.20257 -5.14924,1.72279 -11.48411,5.24077 -14.90288,8.2761 l -1.19062,1.05709 5.08652,5.06509 c 0,0 1.03825,-0.718 2.22181,-1.59555 z M 74.337727,159.29049 c 14.361699,-11.50469 32.854243,-14.8952 50.446003,-9.24901 5.82421,1.86933 12.85111,5.73379 17.3211,9.5258 l 1.78962,1.51818 7.87091,-8.13152 -5.9486,-3.8491 4.23619,-15.07192 -13.59909,3.02023 -2.35217,-7.49922 -12.6746,13.91049 3.74904,-27.89838 -8.62806,3.70064 -8.5981,-17.1815 -7.9253,17.61442 -9.759914,-3.87204 3.49022,27.57074 -12.62133,-13.86329 -2.12906,6.96921 -14.429829,-2.93975 4.11729,15.715 -5.61644,2.81147 c 0,0 5.822782,6.16852 9.01024,8.92948 0.0508,0 1.06414,-0.77846 2.25188,-1.72993 z"
           style="fill:#ffffff;fill-opacity:1;stroke-width:0.26458332" />
      </g>
    </g>
  </g>
  <g
     inkscape:label="chevron outline circles"
     id="g1190"
     inkscape:groupmode="layer"
     style="display:inline"
     sodipodi:insensitive="true">
    <g
       inkscape:groupmode="layer"
       id="g1180"
       inkscape:label="text full"
       transform="translate(0,922.2)">
      <flowRoot
         xml:space="preserve"
         id="flowRoot1170"
         style="font-style:normal;font-weight:normal;font-size:40px;line-height:1;font-family:sans-serif;text-align:center;letter-spacing:0px;word-spacing:0px;text-anchor:middle;display:inline;fill:#000000;fill-opacity:1;stroke:none"
         transform="matrix(0.55152051,0,0,0.55152051,-28.702317,-309.03545)"
         inkscape:export-filename="C:\Users\heardp\Desktop\dtf-logo_v1b.png"
         inkscape:export-xdpi="96"
         inkscape:export-ydpi="96"><flowRegion
           id="flowRegion1166"
           style="line-height:1"><rect
             id="rect1164"
             width="751.42859"
             height="108.57144"
             x="35.714287"
             y="461.09113"
             style="line-height:1" /></flowRegion><flowPara
           id="flowPara1168"
           style="font-style:normal;font-variant:normal;font-weight:bold;font-stretch:normal;font-size:74.66666412px;line-height:1;font-family:'Century Gothic';-inkscape-font-specification:'Century Gothic Bold'">CIO</flowPara></flowRoot>      <flowRoot
         xml:space="preserve"
         id="flowRoot1178"
         style="font-style:normal;font-weight:normal;font-size:40px;line-height:1;font-family:sans-serif;text-align:center;letter-spacing:0px;word-spacing:0px;text-anchor:middle;display:inline;fill:#000000;fill-opacity:1;stroke:none"
         transform="matrix(0.55152052,0,0,0.55152052,190.94605,-308.77342)"
         inkscape:export-filename="C:\Users\heardp\Desktop\dtf-logo_v1b.png"
         inkscape:export-xdpi="96"
         inkscape:export-ydpi="96"><flowRegion
           id="flowRegion1174"
           style="line-height:1"><rect
             id="rect1172"
             width="751.42859"
             height="108.57144"
             x="35.714287"
             y="461.09113"
             style="line-height:1" /></flowRegion><flowPara
           id="flowPara1176"
           style="font-style:normal;font-variant:normal;font-weight:normal;font-stretch:normal;font-size:74.66666412px;line-height:1;font-family:'Century Gothic';-inkscape-font-specification:'Century Gothic'">Digital Task Force</flowPara></flowRoot>    </g>
    <g
       inkscape:label="logo"
       id="g1188"
       inkscape:groupmode="layer">
      <path
         inkscape:export-ydpi="96"
         inkscape:export-xdpi="96"
         inkscape:export-filename="C:\Users\heardp\Desktop\dtf-logo_v1b.png"
         inkscape:connector-curvature="0"
         id="path1182"
         d="m 142.16175,885.90766 a 38.656408,38.656408 0 0 1 -38.65641,38.65644 38.656408,38.656408 0 0 1 -38.656409,-38.65644 38.656408,38.656408 0 0 1 38.656409,-38.65639 38.656408,38.656408 0 0 1 38.65641,38.65639 z"
         style="opacity:1;fill:none;fill-opacity:1;stroke:#273b9a;stroke-width:8.14299965;stroke-miterlimit:4;stroke-dasharray:none;stroke-opacity:1" />
      <path
         inkscape:export-ydpi="96"
         inkscape:export-xdpi="96"
         inkscape:export-filename="C:\Users\heardp\Desktop\dtf-logo_v1b.png"
         sodipodi:nodetypes="ccccccccccccccccccccccc"
         inkscape:connector-curvature="0"
         id="path1184"
         d="m 97.051353,910.66005 c -0.0305,0.0292 -0.0614,0.058 -0.0927,0.0863 l -0.0477,0.0477 -0.002,-0.002 c -1.76649,1.61963 -4.49503,1.5613 -6.190687,-0.13234 -1.694308,-1.69842 -1.749114,-4.43037 -0.12429,-6.19538 l -0.007,-0.007 0.13012,-0.13012 7.8e-4,-7.7e-4 21.823704,-21.82372 7.8e-4,-7.7e-4 0.001,-10e-4 0.0252,-0.0252 9.7e-4,9.7e-4 c 1.75252,-1.72378 4.56699,-1.7125 6.30564,0.0253 1.73739,1.73871 1.74848,4.55288 0.0249,6.30524 l 0.001,10e-4 -0.0261,0.0261 -1.8e-4,1.8e-4 -1.8e-4,1.8e-4 -21.764887,21.75853 c -0.0196,0.0222 -0.0395,0.0441 -0.0596,0.0659 z"
         style="opacity:1;fill:#6748c1;fill-opacity:1;stroke:none;stroke-width:0.07771616;stroke-miterlimit:4;stroke-dasharray:none;stroke-opacity:1" />
      <path
         inkscape:export-ydpi="96"
         inkscape:export-xdpi="96"
         inkscape:export-filename="C:\Users\heardp\Desktop\dtf-logo_v1b.png"
         sodipodi:nodetypes="ccccccccccccccccccccccc"
         inkscape:connector-curvature="0"
         id="path1186"
         d="m 97.054123,860.63931 c -0.03049,-0.0292 -0.06139,-0.058 -0.0927,-0.0863 l -0.04769,-0.0477 -0.0017,0.002 c -1.766491,-1.61963 -4.49503,-1.5613 -6.19069,0.13234 -1.694306,1.69842 -1.749112,4.43037 -0.124288,6.19538 l -0.0065,0.007 0.130121,0.13012 7.76e-4,7.8e-4 21.823708,21.82371 7.8e-4,7.7e-4 0.001,10e-4 0.0252,0.0252 9.7e-4,-9.7e-4 c 1.75252,1.72378 4.56699,1.7125 6.30564,-0.0253 1.73739,-1.7387 1.74849,-4.55288 0.0249,-6.30524 l 0.001,-0.001 -0.0261,-0.0261 -1.8e-4,-1.8e-4 -1.8e-4,-1.8e-4 -21.76444,-21.75834 c -0.01965,-0.0222 -0.03952,-0.0441 -0.0596,-0.0659 z"
         style="opacity:0.769;fill:#2585c6;fill-opacity:1;stroke:none;stroke-width:0.07771616;stroke-miterlimit:4;stroke-dasharray:none;stroke-opacity:1" />
      <path
         style="opacity:1;fill:#442bc1;fill-opacity:0.51162792;stroke:none;stroke-width:13.52319145;stroke-miterlimit:4;stroke-dasharray:none;stroke-opacity:1"
         d="m 98.196907,907.61802 a 4.3939715,4.3939715 0 0 0 -4.364387,-4.42336 4.3939715,4.3939715 0 0 0 -4.42336,4.36439 4.3939715,4.3939715 0 0 0 4.36439,4.42336 4.3939715,4.3939715 0 0 0 4.423357,-4.36439 z"
         id="path1194"
         inkscape:connector-curvature="0" />
      <path
         style="display:inline;opacity:1;fill:#64cde8;fill-opacity:0.76862745;stroke:none;stroke-width:13.74130726;stroke-miterlimit:4;stroke-dasharray:none;stroke-opacity:1"
         d="m 98.338647,863.80993 a 4.4648422,4.4648422 0 0 0 -4.434781,-4.49471 4.4648422,4.4648422 0 0 0 -4.494704,4.43479 4.4648422,4.4648422 0 0 0 4.434783,4.4947 4.4648422,4.4648422 0 0 0 4.494702,-4.43478 z"
         id="path1194-1"
         inkscape:connector-curvature="0" />
    </g>
  </g>
  <g
     inkscape:label="chevron solid"
     id="g1162"
     inkscape:groupmode="layer"
     style="display:inline"
     sodipodi:insensitive="true">
    <g
       inkscape:groupmode="layer"
       id="g1152"
       inkscape:label="text full"
       transform="translate(0,922.2)">
      <flowRoot
         xml:space="preserve"
         id="flowRoot1142"
         style="font-style:normal;font-weight:normal;font-size:40px;line-height:1;font-family:sans-serif;text-align:center;letter-spacing:0px;word-spacing:0px;text-anchor:middle;display:inline;fill:#000000;fill-opacity:1;stroke:none"
         transform="matrix(0.55152051,0,0,0.55152051,-28.702317,-444.02408)"
         inkscape:export-filename="C:\Users\heardp\Desktop\dtf-logo_v1b.png"
         inkscape:export-xdpi="96"
         inkscape:export-ydpi="96"><flowRegion
           id="flowRegion1138"
           style="line-height:1"><rect
             id="rect1136"
             width="751.42859"
             height="108.57144"
             x="35.714287"
             y="461.09113"
             style="line-height:1" /></flowRegion><flowPara
           id="flowPara1140"
           style="font-style:normal;font-variant:normal;font-weight:bold;font-stretch:normal;font-size:74.66666412px;line-height:1;font-family:'Century Gothic';-inkscape-font-specification:'Century Gothic Bold'">CIO</flowPara></flowRoot>      <flowRoot
         xml:space="preserve"
         id="flowRoot1150"
         style="font-style:normal;font-weight:normal;font-size:40px;line-height:1;font-family:sans-serif;text-align:center;letter-spacing:0px;word-spacing:0px;text-anchor:middle;display:inline;fill:#000000;fill-opacity:1;stroke:none"
         transform="matrix(0.55152052,0,0,0.55152052,190.94605,-443.76205)"
         inkscape:export-filename="C:\Users\heardp\Desktop\dtf-logo_v1b.png"
         inkscape:export-xdpi="96"
         inkscape:export-ydpi="96"><flowRegion
           id="flowRegion1146"
           style="line-height:1"><rect
             id="rect1144"
             width="751.42859"
             height="108.57144"
             x="35.714287"
             y="461.09113"
             style="line-height:1" /></flowRegion><flowPara
           id="flowPara1148"
           style="font-style:normal;font-variant:normal;font-weight:normal;font-stretch:normal;font-size:74.66666412px;line-height:1;font-family:'Century Gothic';-inkscape-font-specification:'Century Gothic'">Digital Task Force</flowPara></flowRoot>    </g>
    <g
       inkscape:label="logo"
       id="g1160"
       inkscape:groupmode="layer">
      <path
         inkscape:connector-curvature="0"
         id="path1154"
         d="m 142.16175,750.91903 a 38.656408,38.656408 0 0 1 -38.65641,38.65644 38.656408,38.656408 0 0 1 -38.656409,-38.65644 38.656408,38.656408 0 0 1 38.656409,-38.65639 38.656408,38.656408 0 0 1 38.65641,38.65639 z"
         style="opacity:1;fill:#273b75;fill-opacity:1;stroke:none;stroke-width:8.14299965;stroke-miterlimit:4;stroke-dasharray:none;stroke-opacity:1"
         inkscape:export-filename="C:\Users\heardp\Desktop\dtf-logo_v1b.png"
         inkscape:export-xdpi="96"
         inkscape:export-ydpi="96" />
      <path
         sodipodi:nodetypes="ccccccccccccccccccccccc"
         inkscape:connector-curvature="0"
         id="path1156"
         d="m 97.051357,725.73467 c -0.03049,-0.0292 -0.0614,-0.058 -0.0927,-0.0863 l -0.04769,-0.0477 -0.0017,0.002 c -1.766489,-1.61963 -4.495027,-1.5613 -6.190688,0.13234 -1.69431,1.69842 -1.749116,4.43037 -0.124291,6.19538 l -0.0065,0.007 0.13012,0.13012 7.77e-4,7.7e-4 21.823705,21.82371 7.8e-4,7.7e-4 10e-4,0.001 0.0252,0.0252 9.7e-4,-9.7e-4 c 1.75252,1.72378 4.56699,1.7125 6.30564,-0.0253 1.73739,-1.73871 1.74848,-4.55288 0.0249,-6.30524 l 0.001,-10e-4 -0.0261,-0.0261 -1.8e-4,-1.8e-4 -1.8e-4,-1.8e-4 -21.764886,-21.75852 c -0.01965,-0.0222 -0.03952,-0.0441 -0.05961,-0.0659 z"
         style="opacity:1;fill:#77c76f;fill-opacity:1;stroke:none;stroke-width:0.07771616;stroke-miterlimit:4;stroke-dasharray:none;stroke-opacity:1"
         inkscape:export-filename="C:\Users\heardp\Desktop\dtf-logo_v1b.png"
         inkscape:export-xdpi="96"
         inkscape:export-ydpi="96" />
      <path
         sodipodi:nodetypes="ccccccccccccccccccccccc"
         inkscape:connector-curvature="0"
         id="path1158"
         d="m 97.054123,775.7554 c -0.03049,0.0292 -0.06139,0.058 -0.0927,0.0863 l -0.04769,0.0477 -0.0017,-0.002 c -1.766491,1.61963 -4.49503,1.5613 -6.19069,-0.13234 -1.694306,-1.69842 -1.749112,-4.43037 -0.124288,-6.19538 l -0.0065,-0.007 0.130121,-0.13012 7.76e-4,-7.8e-4 21.823708,-21.82371 7.8e-4,-7.7e-4 0.001,-10e-4 0.0252,-0.0252 9.7e-4,9.7e-4 c 1.75252,-1.72378 4.56699,-1.7125 6.30564,0.0253 1.73739,1.7387 1.74849,4.55288 0.0249,6.30524 l 0.001,10e-4 -0.0261,0.0261 -1.8e-4,1.8e-4 -1.8e-4,1.8e-4 -21.76444,21.75834 c -0.01965,0.0222 -0.03952,0.0441 -0.0596,0.0659 z"
         style="opacity:0.769;fill:#33c7c6;fill-opacity:1;stroke:none;stroke-width:0.07771616;stroke-miterlimit:4;stroke-dasharray:none;stroke-opacity:1"
         inkscape:export-filename="C:\Users\heardp\Desktop\dtf-logo_v1b.png"
         inkscape:export-xdpi="96"
         inkscape:export-ydpi="96" />
    </g>
  </g>
  <g
     inkscape:groupmode="layer"
     id="layer8"
     inkscape:label="chevron outline"
     sodipodi:insensitive="true"
     style="display:inline">
    <g
       transform="translate(0,922.2)"
       inkscape:label="text full"
       id="g1055"
       inkscape:groupmode="layer">
      <flowRoot
         inkscape:export-ydpi="96"
         inkscape:export-xdpi="96"
         inkscape:export-filename="C:\Users\heardp\Desktop\dtf-logo_v1b.png"
         transform="matrix(0.55152051,0,0,0.55152051,-28.702317,-581.60741)"
         style="font-style:normal;font-weight:normal;font-size:40px;line-height:1;font-family:sans-serif;text-align:center;letter-spacing:0px;word-spacing:0px;text-anchor:middle;display:inline;fill:#000000;fill-opacity:1;stroke:none"
         id="flowRoot1045"
         xml:space="preserve"><flowRegion
           style="line-height:1"
           id="flowRegion1041"><rect
             style="line-height:1"
             y="461.09113"
             x="35.714287"
             height="108.57144"
             width="751.42859"
             id="rect1039" /></flowRegion><flowPara
           style="font-style:normal;font-variant:normal;font-weight:bold;font-stretch:normal;font-size:74.66666412px;line-height:1;font-family:'Century Gothic';-inkscape-font-specification:'Century Gothic Bold'"
           id="flowPara1043">CIO</flowPara></flowRoot>      <flowRoot
         inkscape:export-ydpi="96"
         inkscape:export-xdpi="96"
         inkscape:export-filename="C:\Users\heardp\Desktop\dtf-logo_v1b.png"
         transform="matrix(0.55152052,0,0,0.55152052,190.94605,-581.34538)"
         style="font-style:normal;font-weight:normal;font-size:40px;line-height:1;font-family:sans-serif;text-align:center;letter-spacing:0px;word-spacing:0px;text-anchor:middle;display:inline;fill:#000000;fill-opacity:1;stroke:none"
         id="flowRoot1045-7"
         xml:space="preserve"><flowRegion
           style="line-height:1"
           id="flowRegion1041-5"><rect
             style="line-height:1"
             y="461.09113"
             x="35.714287"
             height="108.57144"
             width="751.42859"
             id="rect1039-5" /></flowRegion><flowPara
           style="font-style:normal;font-variant:normal;font-weight:normal;font-stretch:normal;font-size:74.66666412px;line-height:1;font-family:'Century Gothic';-inkscape-font-specification:'Century Gothic'"
           id="flowPara1043-5">Digital Task Force</flowPara></flowRoot>    </g>
    <g
       inkscape:groupmode="layer"
       id="layer7"
       inkscape:label="logo">
      <path
         style="opacity:1;fill:none;fill-opacity:1;stroke:#273b9a;stroke-width:8.14299965;stroke-miterlimit:4;stroke-dasharray:none;stroke-opacity:1"
         d="M 142.16175,613.3357 A 38.656408,38.656408 0 0 1 103.50534,651.99214 38.656408,38.656408 0 0 1 64.848931,613.3357 38.656408,38.656408 0 0 1 103.50534,574.67931 38.656408,38.656408 0 0 1 142.16175,613.3357 Z"
         id="path1030"
         inkscape:connector-curvature="0"
         inkscape:export-filename="C:\Users\heardp\Desktop\dtf-logo_v1b.png"
         inkscape:export-xdpi="96"
         inkscape:export-ydpi="96" />
      <path
         style="opacity:1;fill:#77c76f;fill-opacity:1;stroke:none;stroke-width:0.07771616;stroke-miterlimit:4;stroke-dasharray:none;stroke-opacity:1"
         d="m 97.051357,588.15134 c -0.03049,-0.0292 -0.0614,-0.058 -0.0927,-0.0863 l -0.04769,-0.0477 -0.0017,0.002 c -1.766489,-1.61963 -4.495027,-1.5613 -6.190688,0.13234 -1.69431,1.69842 -1.749116,4.43037 -0.124291,6.19538 l -0.0065,0.007 0.13012,0.13012 7.77e-4,7.7e-4 21.823705,21.82371 7.8e-4,7.7e-4 10e-4,10e-4 0.0252,0.0252 9.7e-4,-9.7e-4 c 1.75252,1.72378 4.56699,1.7125 6.30564,-0.0253 1.73739,-1.73871 1.74848,-4.55288 0.0249,-6.30524 l 0.001,-10e-4 -0.0261,-0.0261 -1.8e-4,-1.8e-4 -1.8e-4,-1.8e-4 -21.764886,-21.75852 c -0.01965,-0.0222 -0.03952,-0.0441 -0.05961,-0.0659 z"
         id="path948"
         inkscape:connector-curvature="0"
         sodipodi:nodetypes="ccccccccccccccccccccccc"
         inkscape:export-filename="C:\Users\heardp\Desktop\dtf-logo_v1b.png"
         inkscape:export-xdpi="96"
         inkscape:export-ydpi="96" />
      <path
         style="opacity:0.769;fill:#33c7c6;fill-opacity:1;stroke:none;stroke-width:0.07771616;stroke-miterlimit:4;stroke-dasharray:none;stroke-opacity:1"
         d="m 97.054123,638.17207 c -0.03049,0.0292 -0.06139,0.058 -0.0927,0.0863 l -0.04769,0.0477 -0.0017,-0.002 c -1.766491,1.61963 -4.49503,1.5613 -6.19069,-0.13234 -1.694306,-1.69842 -1.749112,-4.43037 -0.124288,-6.19538 l -0.0065,-0.007 0.130121,-0.13012 7.76e-4,-7.8e-4 21.823708,-21.82371 7.8e-4,-7.7e-4 0.001,-10e-4 0.0252,-0.0252 9.7e-4,9.7e-4 c 1.75252,-1.72378 4.56699,-1.7125 6.30564,0.0253 1.73739,1.7387 1.74849,4.55288 0.0249,6.30524 l 0.001,10e-4 -0.0261,0.0261 -1.8e-4,1.8e-4 -1.8e-4,1.8e-4 -21.76444,21.75834 c -0.01965,0.0222 -0.03952,0.0441 -0.0596,0.0659 z"
         id="path948-7"
         inkscape:connector-curvature="0"
         sodipodi:nodetypes="ccccccccccccccccccccccc"
         inkscape:export-filename="C:\Users\heardp\Desktop\dtf-logo_v1b.png"
         inkscape:export-xdpi="96"
         inkscape:export-ydpi="96" />
    </g>
  </g>
  <g
     inkscape:groupmode="layer"
     id="layer5"
     inkscape:label="checkmark monochrome"
     style="display:inline"
     sodipodi:insensitive="true">
    <g
       inkscape:label="logo monochrome"
       inkscape:groupmode="layer"
       id="g893"
       style="display:inline"
       transform="translate(0,922.2)">
      <path
         style="opacity:1;fill:#000000;fill-opacity:1;stroke:none;stroke-width:0.81557333;stroke-miterlimit:4;stroke-dasharray:none;stroke-opacity:1"
         d="m 142.2982,-459.97511 a 38.654282,37.762574 0 0 1 -38.65429,37.76259 38.654282,37.762574 0 0 1 -38.654289,-37.76259 38.654282,37.762574 0 0 1 38.654289,-37.76256 38.654282,37.762574 0 0 1 38.65429,37.76256 z"
         id="path875"
         inkscape:connector-curvature="0" />
      <g
         id="g883"
         transform="matrix(0.3820844,0,0,0.3820844,60.362883,-514.70079)">
        <path
           sodipodi:nodetypes="cccccc"
           inkscape:connector-curvature="0"
           id="path877"
           d="M 90.214545,202.40855 173.94033,118.68313 V 95.184099 l -23.49903,-7e-6 -83.725418,83.725788 z"
           style="opacity:0.78800001;fill:#ffffff;fill-opacity:1;stroke:none;stroke-width:0.56280714;stroke-miterlimit:4;stroke-dasharray:none;stroke-opacity:1" />
        <path
           sodipodi:nodetypes="cccccc"
           inkscape:connector-curvature="0"
           id="path879"
           d="m 90.214545,202.40855 -46.684131,-46.68377 -3e-6,-23.49902 h 23.499028 l 46.683791,46.68413 z"
           style="opacity:0.82999998;fill:#ffffff;fill-opacity:1;stroke:none;stroke-width:0.56280714;stroke-miterlimit:4;stroke-dasharray:none;stroke-opacity:1" />
      </g>
      <flowRoot
         xml:space="preserve"
         id="flowRoot891"
         style="font-style:normal;font-variant:normal;font-weight:normal;font-stretch:normal;font-size:40px;line-height:0px;font-family:'Century Gothic';-inkscape-font-specification:'Century Gothic';text-align:center;letter-spacing:0px;word-spacing:0px;text-anchor:middle;fill:#000000;fill-opacity:1;stroke:none"
         transform="scale(0.26458333)"><flowRegion
           id="flowRegion887"
           style="font-style:normal;font-variant:normal;font-weight:normal;font-stretch:normal;font-family:'Century Gothic';-inkscape-font-specification:'Century Gothic';text-align:center;text-anchor:middle"><rect
             id="rect885"
             width="708.57141"
             height="151.42857"
             x="45.714287"
             y="453.94824"
             style="font-style:normal;font-variant:normal;font-weight:normal;font-stretch:normal;font-family:'Century Gothic';-inkscape-font-specification:'Century Gothic';text-align:center;text-anchor:middle" /></flowRegion><flowPara
           id="flowPara889" /></flowRoot>    </g>
  </g>
  <g
     style="display:inline"
     inkscape:label="checkmark acronym"
     id="g1404"
     inkscape:groupmode="layer"
     sodipodi:insensitive="true">
    <g
       transform="translate(0,922.2)"
       inkscape:label="logo colour"
       inkscape:groupmode="layer"
       id="g1366"
       style="display:inline">
      <path
         style="opacity:1;fill:url(#linearGradient4861);fill-opacity:1;stroke:none;stroke-width:0.81557333;stroke-miterlimit:4;stroke-dasharray:none;stroke-opacity:1"
         d="m 142.2982,-638.69033 a 38.654282,37.762574 0 0 1 -38.65429,37.76259 38.654282,37.762574 0 0 1 -38.654289,-37.76259 38.654282,37.762574 0 0 1 38.654289,-37.76255 38.654282,37.762574 0 0 1 38.65429,37.76255 z"
         id="path1348"
         inkscape:connector-curvature="0" />
      <g
         id="g1356"
         transform="matrix(0.3820844,0,0,0.3820844,60.362883,-693.41601)">
        <path
           sodipodi:nodetypes="cccccc"
           inkscape:connector-curvature="0"
           id="path1350"
           d="M 90.214545,202.40855 173.94033,118.68313 V 95.184099 l -23.49903,-7e-6 -83.725418,83.725788 z"
           style="opacity:0.78800001;fill:#ffffff;fill-opacity:1;stroke:none;stroke-width:0.56280714;stroke-miterlimit:4;stroke-dasharray:none;stroke-opacity:1" />
        <path
           sodipodi:nodetypes="cccccc"
           inkscape:connector-curvature="0"
           id="path1352"
           d="m 90.214545,202.40855 -46.684131,-46.68377 -3e-6,-23.49902 h 23.499028 l 46.683791,46.68413 z"
           style="opacity:0.82999998;fill:#ffffff;fill-opacity:1;stroke:none;stroke-width:0.56280714;stroke-miterlimit:4;stroke-dasharray:none;stroke-opacity:1" />
        <path
           sodipodi:nodetypes="ccccc"
           inkscape:connector-curvature="0"
           id="path1354"
           d="m 113.71323,178.90989 9.64246,-9.6421 -23.499033,-23.49903 -9.642089,9.64246 z"
           style="opacity:0.731;fill:url(#linearGradient4859);fill-opacity:1;stroke:none;stroke-width:0.56280714;stroke-miterlimit:4;stroke-dasharray:none;stroke-opacity:1" />
      </g>
      <flowRoot
         xml:space="preserve"
         id="flowRoot1364"
         style="font-style:normal;font-variant:normal;font-weight:normal;font-stretch:normal;font-size:40px;line-height:0px;font-family:'Century Gothic';-inkscape-font-specification:'Century Gothic';text-align:center;letter-spacing:0px;word-spacing:0px;text-anchor:middle;fill:#000000;fill-opacity:1;stroke:none"
         transform="scale(0.26458333)"><flowRegion
           id="flowRegion1360"
           style="font-style:normal;font-variant:normal;font-weight:normal;font-stretch:normal;font-family:'Century Gothic';-inkscape-font-specification:'Century Gothic';text-align:center;text-anchor:middle"><rect
             id="rect1358"
             width="708.57141"
             height="151.42857"
             x="45.714287"
             y="453.94824"
             style="font-style:normal;font-variant:normal;font-weight:normal;font-stretch:normal;font-family:'Century Gothic';-inkscape-font-specification:'Century Gothic';text-align:center;text-anchor:middle" /></flowRegion><flowPara
           id="flowPara1362" /></flowRoot>    </g>
    <g
       transform="translate(0,922.2)"
       style="display:inline"
       inkscape:groupmode="layer"
       id="g1384"
       inkscape:label="text acronym ftw">
      <flowRoot
         xml:space="preserve"
         id="flowRoot1374"
         style="font-style:normal;font-weight:normal;font-size:40px;line-height:1;font-family:sans-serif;text-align:center;letter-spacing:1.88943076px;word-spacing:0px;text-anchor:middle;display:inline;fill:#000000;fill-opacity:1;stroke:none"
         transform="matrix(0.52070282,0,0,0.52070282,-112.33364,-820.34769)"><flowRegion
           id="flowRegion1370"
           style="line-height:1;letter-spacing:1.88943076px"><rect
             id="rect1368"
             width="751.42859"
             height="108.57144"
             x="35.714287"
             y="461.09113"
             style="line-height:1;letter-spacing:1.88943076px" /></flowRegion><flowPara
           id="flowPara1372"
           style="font-style:normal;font-variant:normal;font-weight:bold;font-stretch:normal;font-size:74.66666412px;line-height:1;font-family:'Century Gothic';-inkscape-font-specification:'Century Gothic Bold';letter-spacing:1.88943076px">DTF</flowPara></flowRoot>      <flowRoot
         xml:space="preserve"
         id="flowRoot1382"
         style="font-style:normal;font-variant:normal;font-weight:normal;font-stretch:normal;font-size:40px;line-height:1;font-family:'Century Gothic';-inkscape-font-specification:'Century Gothic';text-align:center;letter-spacing:0px;word-spacing:0px;text-anchor:middle;display:inline;fill:#000000;fill-opacity:1;stroke:none"
         transform="matrix(0.20659466,0,0,0.20659466,18.2935,-691.12583)"><flowRegion
           id="flowRegion1378"
           style="font-style:normal;font-variant:normal;font-weight:normal;font-stretch:normal;line-height:1;font-family:'Century Gothic';-inkscape-font-specification:'Century Gothic'"><rect
             id="rect1376"
             width="751.42859"
             height="108.57144"
             x="35.714287"
             y="461.09113"
             style="font-style:normal;font-variant:normal;font-weight:normal;font-stretch:normal;line-height:1;font-family:'Century Gothic';-inkscape-font-specification:'Century Gothic'" /></flowRegion><flowPara
           id="flowPara1380"
           style="font-style:normal;font-variant:normal;font-weight:normal;font-stretch:normal;font-size:74.66666412px;line-height:1;font-family:'Century Gothic';-inkscape-font-specification:'Century Gothic'">SSC CIO</flowPara></flowRoot>    </g>
  </g>
  <g
     style="display:inline"
     inkscape:label="checkmark"
     id="g1308"
     inkscape:groupmode="layer">
    <g
       transform="translate(0,922.2)"
       style="display:inline"
       id="g1232"
       inkscape:groupmode="layer"
       inkscape:label="logo colour">
      <path
         inkscape:export-ydpi="96"
         inkscape:export-xdpi="96"
         inkscape:export-filename="C:\Users\heardp\Desktop\dtf-logo_v1a.png"
         inkscape:connector-curvature="0"
         id="path1214"
         d="m 142.2982,-823.75336 a 38.654282,37.762574 0 0 1 -38.65429,37.76259 38.654282,37.762574 0 0 1 -38.654289,-37.76259 38.654282,37.762574 0 0 1 38.654289,-37.76256 38.654282,37.762574 0 0 1 38.65429,37.76256 z"
         style="opacity:1;fill:url(#linearGradient4740);fill-opacity:1;stroke:none;stroke-width:0.81557333;stroke-miterlimit:4;stroke-dasharray:none;stroke-opacity:1" />
      <g
         inkscape:export-ydpi="96"
         inkscape:export-xdpi="96"
         inkscape:export-filename="C:\Users\heardp\Desktop\dtf-logo_v1a.png"
         transform="matrix(0.3820844,0,0,0.3820844,60.362883,-878.47905)"
         id="g1222">
        <path
           style="opacity:0.78800001;fill:#ffffff;fill-opacity:1;stroke:none;stroke-width:0.56280714;stroke-miterlimit:4;stroke-dasharray:none;stroke-opacity:1"
           d="M 90.214545,202.40855 173.94033,118.68313 V 95.184099 l -23.49903,-7e-6 -83.725418,83.725788 z"
           id="path1216"
           inkscape:connector-curvature="0"
           sodipodi:nodetypes="cccccc" />
        <path
           style="opacity:0.82999998;fill:#ffffff;fill-opacity:1;stroke:none;stroke-width:0.56280714;stroke-miterlimit:4;stroke-dasharray:none;stroke-opacity:1"
           d="m 90.214545,202.40855 -46.684131,-46.68377 -3e-6,-23.49902 h 23.499028 l 46.683791,46.68413 z"
           id="path1218"
           inkscape:connector-curvature="0"
           sodipodi:nodetypes="cccccc" />
        <path
           style="opacity:0.731;fill:url(#linearGradient4769);fill-opacity:1;stroke:none;stroke-width:0.56280714;stroke-miterlimit:4;stroke-dasharray:none;stroke-opacity:1"
           d="m 113.71323,178.90989 9.64246,-9.6421 -23.499033,-23.49903 -9.642089,9.64246 z"
           id="path1220"
           inkscape:connector-curvature="0"
           sodipodi:nodetypes="ccccc" />
      </g>
      <flowRoot
         transform="scale(0.26458333)"
         style="font-style:normal;font-variant:normal;font-weight:normal;font-stretch:normal;font-size:40px;line-height:0px;font-family:'Century Gothic';-inkscape-font-specification:'Century Gothic';text-align:center;letter-spacing:0px;word-spacing:0px;text-anchor:middle;fill:#000000;fill-opacity:1;stroke:none"
         id="flowRoot1230"
         xml:space="preserve"><flowRegion
           style="font-style:normal;font-variant:normal;font-weight:normal;font-stretch:normal;font-family:'Century Gothic';-inkscape-font-specification:'Century Gothic';text-align:center;text-anchor:middle"
           id="flowRegion1226"><rect
             style="font-style:normal;font-variant:normal;font-weight:normal;font-stretch:normal;font-family:'Century Gothic';-inkscape-font-specification:'Century Gothic';text-align:center;text-anchor:middle"
             y="453.94824"
             x="45.714287"
             height="151.42857"
             width="708.57141"
             id="rect1224" /></flowRegion><flowPara
           id="flowPara1228" /></flowRoot>    </g>
    <g
       transform="translate(0,922.2)"
       inkscape:label="text full"
       id="g1250"
       inkscape:groupmode="layer">
      <flowRoot
         inkscape:export-ydpi="96"
         inkscape:export-xdpi="96"
         inkscape:export-filename="C:\Users\heardp\Desktop\dtf-logo_v1a.png"
         transform="matrix(0.35637044,0,0,0.35637044,28.157055,-933.24426)"
         style="font-style:normal;font-weight:normal;font-size:40px;line-height:1;font-family:sans-serif;text-align:center;letter-spacing:0px;word-spacing:0px;text-anchor:middle;display:inline;fill:#000000;fill-opacity:1;stroke:none"
         id="flowRoot1240"
         xml:space="preserve"><flowRegion
           style="line-height:1"
           id="flowRegion1236"><rect
             style="line-height:1"
             y="461.09113"
             x="35.714287"
             height="108.57144"
             width="751.42859"
             id="rect1234" /></flowRegion><flowPara
           style="font-style:normal;font-variant:normal;font-weight:bold;font-stretch:normal;font-size:74.66666412px;line-height:1;font-family:'Century Gothic';-inkscape-font-specification:'Century Gothic Bold'"
           id="flowPara1238">Digital Task Force</flowPara></flowRoot>      <flowRoot
         inkscape:export-ydpi="96"
         inkscape:export-xdpi="96"
         inkscape:export-filename="C:\Users\heardp\Desktop\dtf-logo_v1a.png"
         transform="matrix(0.26659929,0,0,0.26659929,-6.285081,-860.94371)"
         style="font-style:normal;font-variant:normal;font-weight:normal;font-stretch:normal;font-size:40px;line-height:1;font-family:'Century Gothic';-inkscape-font-specification:'Century Gothic';text-align:center;letter-spacing:0px;word-spacing:0px;text-anchor:middle;display:inline;fill:#000000;fill-opacity:1;stroke:none"
         id="flowRoot1248"
         xml:space="preserve"><flowRegion
           style="font-style:normal;font-variant:normal;font-weight:normal;font-stretch:normal;line-height:1;font-family:'Century Gothic';-inkscape-font-specification:'Century Gothic'"
           id="flowRegion1244"><rect
             style="font-style:normal;font-variant:normal;font-weight:normal;font-stretch:normal;line-height:1;font-family:'Century Gothic';-inkscape-font-specification:'Century Gothic'"
             y="461.09113"
             x="35.714287"
             height="108.57144"
             width="751.42859"
             id="rect1242" /></flowRegion><flowPara
           style="font-style:normal;font-variant:normal;font-weight:normal;font-stretch:normal;font-size:74.66666412px;line-height:1;font-family:'Century Gothic';-inkscape-font-specification:'Century Gothic'"
           id="flowPara1246">SSC CIO INFORMATINO </flowPara></flowRoot>    </g>
  </g>
</svg>
