<?xml version="1.0" encoding="UTF-8" standalone="no"?>
<!-- Created with Inkscape (http://www.inkscape.org/) -->

<svg
   xmlns:dc="http://purl.org/dc/elements/1.1/"
   xmlns:cc="http://creativecommons.org/ns#"
   xmlns:rdf="http://www.w3.org/1999/02/22-rdf-syntax-ns#"
   xmlns:svg="http://www.w3.org/2000/svg"
   xmlns="http://www.w3.org/2000/svg"
   xmlns:sodipodi="http://sodipodi.sourceforge.net/DTD/sodipodi-0.dtd"
   xmlns:inkscape="http://www.inkscape.org/namespaces/inkscape"
   width="200.85413mm"
   height="16.140013mm"
   viewBox="0 0 200.85413 16.140013"
   version="1.1"
   id="svg8"
   inkscape:version="0.92.4 (5da689c313, 2019-01-14)"
   sodipodi:docname="ssc-fip.svg">
  <defs
     id="defs2" />
  <sodipodi:namedview
     id="base"
     pagecolor="#ffffff"
     bordercolor="#666666"
     borderopacity="1.0"
     inkscape:pageopacity="0.0"
     inkscape:pageshadow="2"
     inkscape:zoom="1.4"
     inkscape:cx="373.6937"
     inkscape:cy="-5.2563041"
     inkscape:document-units="mm"
     inkscape:current-layer="g897"
     showgrid="false"
     inkscape:window-width="1920"
     inkscape:window-height="1017"
     inkscape:window-x="-8"
     inkscape:window-y="32"
     inkscape:window-maximized="1"
     showguides="true"
     inkscape:guide-bbox="true">
    <sodipodi:guide
       position="185.19503,-36.012075"
       orientation="0,1"
       id="guide969"
       inkscape:locked="false" />
    <sodipodi:guide
       position="46.491071,-54.80655"
       orientation="1,0"
       id="guide899"
       inkscape:locked="false" />
    <sodipodi:guide
       position="127.37797,-74.461313"
       orientation="1,0"
       id="guide901"
       inkscape:locked="false" />
  </sodipodi:namedview>
  <metadata
     id="metadata5">
    <rdf:RDF>
      <cc:Work
         rdf:about="">
        <dc:format>image/svg+xml</dc:format>
        <dc:type
           rdf:resource="http://purl.org/dc/dcmitype/StillImage" />
        <dc:title />
      </cc:Work>
    </rdf:RDF>
  </metadata>
  <g
     inkscape:label="English"
     inkscape:groupmode="layer"
     id="layer1"
     transform="translate(-10.029682,-85.341962)"
     sodipodi:insensitive="true"
     style="display:none">
    <path
       inkscape:connector-curvature="0"
       id="path1423-9"
       style="fill:#231f20;fill-opacity:1;fill-rule:nonzero;stroke:none;stroke-width:1.3374356"
       d="m 10.029682,101.37049 c 0,0 0,-15.861164 0,-15.861164 0,0 7.790826,0 7.790826,0 0,0 0,15.861164 0,15.861164 0,0 -7.790826,0 -7.790826,0 z" />
    <path
       inkscape:connector-curvature="0"
       id="path1425-5"
       style="fill:#231f20;fill-opacity:1;fill-rule:nonzero;stroke:none;stroke-width:1.3374356"
       d="m 35.098778,101.37049 c 0,0 0,-15.861164 0,-15.861164 0,0 7.78821,0 7.78821,0 0,0 0,15.861164 0,15.861164 0,0 -7.78821,0 -7.78821,0 z" />
    <path
       inkscape:connector-curvature="0"
       id="path1427-1"
       style="fill:#231f20;fill-opacity:1;fill-rule:nonzero;stroke:none;stroke-width:1.3374356"
       d="m 25.377534,88.805906 c 0,0 1.114106,-2.26412 1.114106,-2.26412 0,0 1.103644,2.18117 1.103644,2.18117 0.139893,0.22986 0.250974,0.21223 0.471468,0.10257 0,0 0.946917,-0.47018 0.946917,-0.47018 0,0 -0.616442,3.04776 -0.616442,3.04776 -0.129278,0.5982 0.211547,0.77255 0.579895,0.36766 0,0 1.354391,-1.44518 1.354391,-1.44518 0,0 0.357885,0.81891 0.357885,0.81891 0.12018,0.24818 0.30443,0.21223 0.543349,0.16586 0,0 1.398823,-0.29517 1.398823,-0.29517 0,0 -0.46889,1.76779 -0.46889,1.76779 0,0 -0.0076,0.0372 -0.0076,0.0372 -0.05611,0.22986 -0.166052,0.42384 0.09137,0.53355 0,0 0.498917,0.24881 0.498917,0.24881 0,0 -2.88253,2.43911 -2.88253,2.43911 -0.293815,0.30433 -0.193349,0.39641 -0.08227,0.73599 0,0 0.265001,0.82024 0.265001,0.82024 0,0 -2.687929,-0.48849 -2.687929,-0.48849 -0.330589,-0.0823 -0.561622,-0.0823 -0.569432,0.18417 0,0 0.111081,3.083684 0.111081,3.083684 0,0 -0.81108,0 -0.81108,0 0,0 0.109564,-3.073884 0.109564,-3.073884 0,-0.30497 -0.228607,-0.29455 -0.771917,-0.18414 0,0 -2.485482,0.47868 -2.485482,0.47868 0,0 0.32111,-0.82024 0.32111,-0.82024 0.111081,-0.3128 0.138378,-0.52503 -0.109563,-0.73597 0,0 -2.946525,-2.40255 -2.946525,-2.40255 0,0 0.542022,-0.33177 0.542022,-0.33177 0.156574,-0.11889 0.168327,-0.24816 0.08378,-0.51589 0,0 -0.551196,-1.79458 -0.551196,-1.79458 0,0 1.417097,0.30432 1.417097,0.30432 0.397085,0.0914 0.506801,0 0.606053,-0.22141 0,0 0.397049,-0.80977 0.397049,-0.80977 0,0 1.400112,1.58299 1.400112,1.58299 0.24832,0.29583 0.598205,0.10116 0.4872,-0.32195 0,0 -0.672664,-3.3057 -0.672664,-3.3057 0,0 1.039649,0.60014 1.039649,0.60014 0.168327,0.10117 0.340824,0.12731 0.442769,-0.0646" />
    <flowRoot
       xml:space="preserve"
       id="flowRoot1461"
       style="font-style:normal;font-weight:normal;font-size:40px;line-height:1.25;font-family:sans-serif;letter-spacing:0px;word-spacing:0px;fill:#000000;fill-opacity:1;stroke:none"
       transform="matrix(0.28975424,0,0,0.28975424,-6.9325832,-15.976796)"><flowRegion
         id="flowRegion1463"><rect
           id="rect1465"
           width="302.64352"
           height="110.43862"
           x="281.42856"
           y="516.80542" /></flowRegion><flowPara
         style="font-style:normal;font-variant:normal;font-weight:normal;font-stretch:normal;font-size:32px;line-height:4;font-family:Helvetica-Normal;-inkscape-font-specification:Helvetica-Normal"
         id="flowPara856">Shared Services</flowPara><flowPara
         style="font-style:normal;font-variant:normal;font-weight:normal;font-stretch:normal;font-size:32px;line-height:4;font-family:Helvetica-Normal;-inkscape-font-specification:Helvetica-Normal"
         id="flowPara872">Canada</flowPara></flowRoot>    <flowRoot
       xml:space="preserve"
       id="flowRoot874"
       style="font-style:normal;font-weight:normal;font-size:40px;line-height:1.25;font-family:sans-serif;letter-spacing:0px;word-spacing:0px;fill:#000000;fill-opacity:1;stroke:none"
       transform="matrix(0.22787185,0,0,0.22787185,-5.4227533,-30.787341)"><flowRegion
         id="flowRegion876"><rect
           id="rect878"
           width="312.46429"
           height="115.34523"
           x="272.85715"
           y="503.23398" /></flowRegion><flowPara
         id="flowPara882"
         style="font-style:normal;font-variant:normal;font-weight:normal;font-stretch:normal;line-height:0;font-family:Helvetica-Normal;-inkscape-font-specification:Helvetica-Normal;letter-spacing:0.05805529px">Shared Services</flowPara><flowPara
         style="font-style:normal;font-variant:normal;font-weight:normal;font-stretch:normal;line-height:1;font-family:Helvetica-Normal;-inkscape-font-specification:Helvetica-Normal"
         id="flowPara886" /></flowRoot>    <flowRoot
       xml:space="preserve"
       id="flowRoot874-1"
       style="font-style:normal;font-weight:normal;font-size:40px;line-height:1.25;font-family:sans-serif;letter-spacing:0px;word-spacing:0px;fill:#000000;fill-opacity:1;stroke:none"
       transform="matrix(0.22787185,0,0,0.22787185,75.470351,-30.828836)"><flowRegion
         id="flowRegion876-0"><rect
           id="rect878-7"
           width="343.97998"
           height="114.51588"
           x="272.85715"
           y="503.23398" /></flowRegion><flowPara
         id="flowPara882-5"
         style="font-style:normal;font-variant:normal;font-weight:normal;font-stretch:normal;line-height:0;font-family:Helvetica-Normal;-inkscape-font-specification:Helvetica-Normal;letter-spacing:0.11611058px">Services partagés</flowPara><flowPara
         style="font-style:normal;font-variant:normal;font-weight:normal;font-stretch:normal;line-height:1;font-family:Helvetica-Normal;-inkscape-font-specification:Helvetica-Normal"
         id="flowPara886-2" /></flowRoot>    <flowRoot
       xml:space="preserve"
       id="flowRoot874-0"
       style="font-style:normal;font-weight:normal;font-size:40px;line-height:1.25;font-family:sans-serif;letter-spacing:0px;word-spacing:0px;fill:#000000;fill-opacity:1;stroke:none"
       transform="matrix(0.22787185,0,0,0.22787185,-5.6981463,-21.757407)"><flowRegion
         id="flowRegion876-02"><rect
           id="rect878-4"
           width="312.46429"
           height="115.34523"
           x="272.85715"
           y="503.23398" /></flowRegion><flowPara
         id="flowPara882-1"
         style="font-style:normal;font-variant:normal;font-weight:normal;font-stretch:normal;line-height:0;font-family:Helvetica-Normal;-inkscape-font-specification:Helvetica-Normal;letter-spacing:0.05805529px">Canada</flowPara><flowPara
         style="font-style:normal;font-variant:normal;font-weight:normal;font-stretch:normal;line-height:1;font-family:Helvetica-Normal;-inkscape-font-specification:Helvetica-Normal"
         id="flowPara886-3" /></flowRoot>    <flowRoot
       xml:space="preserve"
       id="flowRoot874-0-8"
       style="font-style:normal;font-weight:normal;font-size:40px;line-height:1.25;font-family:sans-serif;letter-spacing:0px;word-spacing:0px;fill:#000000;fill-opacity:1;stroke:none"
       transform="matrix(0.22787185,0,0,0.22787185,75.147382,-21.73462)"><flowRegion
         id="flowRegion876-02-4"><rect
           id="rect878-4-1"
           width="312.46429"
           height="115.34523"
           x="272.85715"
           y="503.23398" /></flowRegion><flowPara
         id="flowPara882-1-6"
         style="font-style:normal;font-variant:normal;font-weight:normal;font-stretch:normal;line-height:0;font-family:Helvetica-Normal;-inkscape-font-specification:Helvetica-Normal;letter-spacing:0.05805529px">Canada</flowPara><flowPara
         style="font-style:normal;font-variant:normal;font-weight:normal;font-stretch:normal;line-height:1;font-family:Helvetica-Normal;-inkscape-font-specification:Helvetica-Normal"
         id="flowPara886-3-6" /></flowRoot>  </g>
  <g
     transform="translate(-10.029682,-85.341962)"
     id="g897"
     inkscape:groupmode="layer"
     inkscape:label="French">
    <path
       d="m 10.029682,101.37049 c 0,0 0,-15.861164 0,-15.861164 0,0 7.790826,0 7.790826,0 0,0 0,15.861164 0,15.861164 0,0 -7.790826,0 -7.790826,0 z"
       style="fill:#231f20;fill-opacity:1;fill-rule:nonzero;stroke:none;stroke-width:1.3374356"
       id="path841"
       inkscape:connector-curvature="0" />
    <path
       d="m 35.098778,101.37049 c 0,0 0,-15.861164 0,-15.861164 0,0 7.78821,0 7.78821,0 0,0 0,15.861164 0,15.861164 0,0 -7.78821,0 -7.78821,0 z"
       style="fill:#231f20;fill-opacity:1;fill-rule:nonzero;stroke:none;stroke-width:1.3374356"
       id="path843"
       inkscape:connector-curvature="0" />
    <path
       d="m 25.377534,88.805906 c 0,0 1.114106,-2.26412 1.114106,-2.26412 0,0 1.103644,2.18117 1.103644,2.18117 0.139893,0.22986 0.250974,0.21223 0.471468,0.10257 0,0 0.946917,-0.47018 0.946917,-0.47018 0,0 -0.616442,3.04776 -0.616442,3.04776 -0.129278,0.5982 0.211547,0.77255 0.579895,0.36766 0,0 1.354391,-1.44518 1.354391,-1.44518 0,0 0.357885,0.81891 0.357885,0.81891 0.12018,0.24818 0.30443,0.21223 0.543349,0.16586 0,0 1.398823,-0.29517 1.398823,-0.29517 0,0 -0.46889,1.76779 -0.46889,1.76779 0,0 -0.0076,0.0372 -0.0076,0.0372 -0.05611,0.22986 -0.166052,0.42384 0.09137,0.53355 0,0 0.498917,0.24881 0.498917,0.24881 0,0 -2.88253,2.43911 -2.88253,2.43911 -0.293815,0.30433 -0.193349,0.39641 -0.08227,0.73599 0,0 0.265001,0.82024 0.265001,0.82024 0,0 -2.687929,-0.48849 -2.687929,-0.48849 -0.330589,-0.0823 -0.561622,-0.0823 -0.569432,0.18417 0,0 0.111081,3.083684 0.111081,3.083684 0,0 -0.81108,0 -0.81108,0 0,0 0.109564,-3.073884 0.109564,-3.073884 0,-0.30497 -0.228607,-0.29455 -0.771917,-0.18414 0,0 -2.485482,0.47868 -2.485482,0.47868 0,0 0.32111,-0.82024 0.32111,-0.82024 0.111081,-0.3128 0.138378,-0.52503 -0.109563,-0.73597 0,0 -2.946525,-2.40255 -2.946525,-2.40255 0,0 0.542022,-0.33177 0.542022,-0.33177 0.156574,-0.11889 0.168327,-0.24816 0.08378,-0.51589 0,0 -0.551196,-1.79458 -0.551196,-1.79458 0,0 1.417097,0.30432 1.417097,0.30432 0.397085,0.0914 0.506801,0 0.606053,-0.22141 0,0 0.397049,-0.80977 0.397049,-0.80977 0,0 1.400112,1.58299 1.400112,1.58299 0.24832,0.29583 0.598205,0.10116 0.4872,-0.32195 0,0 -0.672664,-3.3057 -0.672664,-3.3057 0,0 1.039649,0.60014 1.039649,0.60014 0.168327,0.10117 0.340824,0.12731 0.442769,-0.0646"
       style="fill:#231f20;fill-opacity:1;fill-rule:nonzero;stroke:none;stroke-width:1.3374356"
       id="path845"
       inkscape:connector-curvature="0" />
    <flowRoot
       transform="matrix(0.28975424,0,0,0.28975424,-6.9325832,-15.976796)"
       style="font-style:normal;font-weight:normal;font-size:40px;line-height:1.25;font-family:sans-serif;letter-spacing:0px;word-spacing:0px;fill:#000000;fill-opacity:1;stroke:none"
       id="flowRoot855"
       xml:space="preserve"><flowRegion
         id="flowRegion849"><rect
           y="516.80542"
           x="281.42856"
           height="110.43862"
           width="302.64352"
           id="rect847" /></flowRegion><flowPara
         id="flowPara851"
         style="font-style:normal;font-variant:normal;font-weight:normal;font-stretch:normal;font-size:32px;line-height:4;font-family:Helvetica-Normal;-inkscape-font-specification:Helvetica-Normal">Shared Services</flowPara><flowPara
         id="flowPara853"
         style="font-style:normal;font-variant:normal;font-weight:normal;font-stretch:normal;font-size:32px;line-height:4;font-family:Helvetica-Normal;-inkscape-font-specification:Helvetica-Normal">Canada</flowPara></flowRoot>    <g
       id="g925"
       transform="translate(80.508929)">
      <flowRoot
         xml:space="preserve"
         id="flowRoot865"
         style="font-style:normal;font-weight:normal;font-size:40px;line-height:1.25;font-family:sans-serif;letter-spacing:0px;word-spacing:0px;fill:#000000;fill-opacity:1;stroke:none"
         transform="matrix(0.22787185,0,0,0.22787185,-5.4227533,-30.787341)"><flowRegion
           id="flowRegion859"><rect
             id="rect857"
             width="312.46429"
             height="115.34523"
             x="272.85715"
             y="503.23398" /></flowRegion><flowPara
           id="flowPara861"
           style="font-style:normal;font-variant:normal;font-weight:normal;font-stretch:normal;line-height:0;font-family:Helvetica-Normal;-inkscape-font-specification:Helvetica-Normal;letter-spacing:0.05805529px">Shared Services</flowPara><flowPara
           style="font-style:normal;font-variant:normal;font-weight:normal;font-stretch:normal;line-height:1;font-family:Helvetica-Normal;-inkscape-font-specification:Helvetica-Normal"
           id="flowPara863" /></flowRoot>      <flowRoot
         xml:space="preserve"
         id="flowRoot885"
         style="font-style:normal;font-weight:normal;font-size:40px;line-height:1.25;font-family:sans-serif;letter-spacing:0px;word-spacing:0px;fill:#000000;fill-opacity:1;stroke:none"
         transform="matrix(0.22787185,0,0,0.22787185,-5.6981463,-21.757407)"><flowRegion
           id="flowRegion879"><rect
             id="rect877"
             width="312.46429"
             height="115.34523"
             x="272.85715"
             y="503.23398" /></flowRegion><flowPara
           id="flowPara881"
           style="font-style:normal;font-variant:normal;font-weight:normal;font-stretch:normal;line-height:0;font-family:Helvetica-Normal;-inkscape-font-specification:Helvetica-Normal;letter-spacing:0.05805529px">Canada</flowPara><flowPara
           style="font-style:normal;font-variant:normal;font-weight:normal;font-stretch:normal;line-height:1;font-family:Helvetica-Normal;-inkscape-font-specification:Helvetica-Normal"
           id="flowPara883" /></flowRoot>    </g>
    <g
       id="g913"
       transform="translate(-81.075893,0.18898851)">
      <flowRoot
         xml:space="preserve"
         id="flowRoot875"
         style="font-style:normal;font-weight:normal;font-size:40px;line-height:1.25;font-family:sans-serif;letter-spacing:0px;word-spacing:0px;fill:#000000;fill-opacity:1;stroke:none"
         transform="matrix(0.22787185,0,0,0.22787185,75.470351,-30.828836)"><flowRegion
           id="flowRegion869"><rect
             id="rect867"
             width="343.97998"
             height="114.51588"
             x="272.85715"
             y="503.23398" /></flowRegion><flowPara
           id="flowPara871"
           style="font-style:normal;font-variant:normal;font-weight:normal;font-stretch:normal;line-height:0;font-family:Helvetica-Normal;-inkscape-font-specification:Helvetica-Normal;letter-spacing:0.11611058px">Services partagés</flowPara><flowPara
           style="font-style:normal;font-variant:normal;font-weight:normal;font-stretch:normal;line-height:1;font-family:Helvetica-Normal;-inkscape-font-specification:Helvetica-Normal"
           id="flowPara873" /></flowRoot>      <flowRoot
         xml:space="preserve"
         id="flowRoot895"
         style="font-style:normal;font-weight:normal;font-size:40px;line-height:1.25;font-family:sans-serif;letter-spacing:0px;word-spacing:0px;fill:#000000;fill-opacity:1;stroke:none"
         transform="matrix(0.22787185,0,0,0.22787185,75.147382,-21.73462)"><flowRegion
           id="flowRegion889"><rect
             id="rect887"
             width="312.46429"
             height="115.34523"
             x="272.85715"
             y="503.23398" /></flowRegion><flowPara
           id="flowPara891"
           style="font-style:normal;font-variant:normal;font-weight:normal;font-stretch:normal;line-height:0;font-family:Helvetica-Normal;-inkscape-font-specification:Helvetica-Normal;letter-spacing:0.05805529px">Canada</flowPara><flowPara
           style="font-style:normal;font-variant:normal;font-weight:normal;font-stretch:normal;line-height:1;font-family:Helvetica-Normal;-inkscape-font-specification:Helvetica-Normal"
           id="flowPara893" /></flowRoot>    </g>
  </g>
</svg>
