<?xml version="1.0" encoding="UTF-8" standalone="no"?>
<!-- Created with Inkscape (http://www.inkscape.org/) -->

<svg
   xmlns:dc="http://purl.org/dc/elements/1.1/"
   xmlns:cc="http://creativecommons.org/ns#"
   xmlns:rdf="http://www.w3.org/1999/02/22-rdf-syntax-ns#"
   xmlns:svg="http://www.w3.org/2000/svg"
   xmlns="http://www.w3.org/2000/svg"
   xmlns:sodipodi="http://sodipodi.sourceforge.net/DTD/sodipodi-0.dtd"
   xmlns:inkscape="http://www.inkscape.org/namespaces/inkscape"
   width="60.921886mm"
   height="14.473082mm"
   viewBox="0 0 60.921888 14.473081"
   version="1.1"
   id="svg8"
   inkscape:version="0.92.4 (5da689c313, 2019-01-14)"
   sodipodi:docname="wordmark.svg">
  <defs
     id="defs2" />
  <sodipodi:namedview
     id="base"
     pagecolor="#ffffff"
     bordercolor="#666666"
     borderopacity="1.0"
     inkscape:pageopacity="0.0"
     inkscape:pageshadow="2"
     inkscape:zoom="5.6"
     inkscape:cx="133.4221"
     inkscape:cy="-11.050899"
     inkscape:document-units="mm"
     inkscape:current-layer="layer1"
     showgrid="false"
     inkscape:window-width="1920"
     inkscape:window-height="1017"
     inkscape:window-x="867"
     inkscape:window-y="1112"
     inkscape:window-maximized="1"
     showguides="true"
     inkscape:guide-bbox="true">
    <sodipodi:guide
       position="185.62016,-61.177141"
       orientation="0,1"
       id="guide969"
       inkscape:locked="false" />
  </sodipodi:namedview>
  <metadata
     id="metadata5">
    <rdf:RDF>
      <cc:Work
         rdf:about="">
        <dc:format>image/svg+xml</dc:format>
        <dc:type
           rdf:resource="http://purl.org/dc/dcmitype/StillImage" />
        <dc:title />
      </cc:Work>
    </rdf:RDF>
  </metadata>
  <g
     inkscape:label="Layer 1"
     inkscape:groupmode="layer"
     id="layer1"
     transform="translate(-9.6045351,-61.843826)">
    <g
       transform="matrix(0.35277777,0,0,-0.35277777,-66.697095,248.24866)"
       inkscape:label="wordmark-bw"
       id="g1407">
      <g
         transform="scale(1,-1)"
         id="g1409">
        <path
           inkscape:connector-curvature="0"
           id="path1411"
           style="fill:#231f20;fill-opacity:1;fill-rule:nonzero;stroke:none"
           d="m 250.70313,-514.59326 c 0,0 -0.84717,-13.23633 -0.84717,-13.23633 -0.10547,-0.31787 -0.62891,-0.32227 -0.63477,0 -0.0522,2.85889 -5.09326,0.46094 -6.8833,0.0537 -15.56641,-3.54834 -26.0498,8.94727 -26.0498,19.3252 0,0 0,0 0,0 0,13.44775 8.89502,20.75488 20.33154,20.75488 9.10693,0 13.71338,-5.82422 15.19629,-12.12549 0.18554,-0.78857 -0.7041,-0.625 -0.90088,0 -2.75293,8.78906 -9.58203,11.00879 -12.97168,10.95996 -7.35986,-0.10547 -14.20508,-6.03808 -14.4541,-19.58935 -0.31787,-17.26123 19.17724,-28.55909 26.5791,-6.35401 0.15918,0.47705 0.5293,0.58252 0.63477,0.21143 z" />
        <path
           inkscape:connector-curvature="0"
           id="path1413"
           style="fill:#231f20;fill-opacity:1;fill-rule:nonzero;stroke:none"
           d="m 260.65771,-488.91406 c 3.33545,0.42334 6.30079,-2.59424 6.30079,-5.55908 0,0 0,-7.20069 0,-7.20069 -14.24317,5.24121 -9.79541,12.54785 -6.30079,12.75977 z m -3.83935,-23.56104 c 4.02393,-1.69385 14.93066,-1.16455 14.93066,3.81201 0,0 0,15.30127 0,15.30127 0,4.1836 4.13037,5.6128 5.29444,2.80664 0.37158,-0.37109 1.00683,-0.10595 0.68945,0.52979 -0.7417,2.96484 -8.04834,3.44092 -10.58936,-0.52979 -14.03125,10.21827 -22.97949,-9.90185 -6.19531,-10.21875 5.24219,-0.79443 5.82373,-3.8125 5.82373,-5.93066 0,-5.24121 -2.75342,-5.71826 -4.39404,-5.71826 -1.74756,0 -3.17676,0.52978 -4.12988,3.23047 -1.48242,5.40039 -9.5835,0.58154 -1.42969,-3.28272 z" />
        <path
           inkscape:connector-curvature="0"
           id="path1415"
           style="fill:#231f20;fill-opacity:1;fill-rule:nonzero;stroke:none"
           d="m 285.38379,-513.00488 c 0,0 -6.83008,0.8999 -6.83008,0.8999 -0.42383,0.10596 -0.42383,0.31738 0.37061,0.5293 1.48291,0.0537 2.43554,1.05908 2.43554,3.23047 0,0 0,15.93701 0,15.93701 0,1.90576 -2.67236,3.57959 -3.22998,3.81201 -1.27099,0.5293 0.63526,0.42334 0.63526,0.42334 0,0 11.17187,0 11.17187,0 0.37012,0 1.53565,0.10596 0.0532,-0.58203 -1.69433,-0.63575 -3.54785,-2.01221 -3.54785,-3.65332 0,-1.64112 0,-11.96631 0,-11.96631 0,-5.02979 3.28321,-7.78272 6.5127,-7.78272 3.38867,0 6.19531,0.74121 6.19531,7.72998 0,0 0,12.01905 0,12.01905 0,1.74707 -2.27734,3.33545 -3.49512,3.75927 -0.79394,0.21192 -1.11181,0.47608 -0.42334,0.47608 0,0 11.9126,0 11.9126,0 0.63477,0.0532 0.90039,-0.15869 0.31836,-0.31787 -2.85937,-1.11133 -3.22998,-3.22901 -3.22998,-3.91748 0,0 0,-13.97852 0,-13.97852 0,-7.99463 -7.67773,-6.93506 -10.37744,-6.93506 -3.38818,0.0522 -6.98877,2.16992 -7.36035,3.12256 -0.10547,-2.59326 -0.42334,-2.8584 -1.11133,-2.80566 z" />
        <path
           inkscape:connector-curvature="0"
           id="path1417"
           style="fill:#231f20;fill-opacity:1;fill-rule:nonzero;stroke:none"
           d="m 346.43164,-488.91602 c 4.21875,0 7.04102,-1.63916 7.04102,-11.4873 0,-9.37158 -2.82227,-11.64648 -7.04102,-11.64648 -4.21875,0 -7.63769,5.4663 -7.63769,11.75195 0,6.28564 3.41894,11.38183 7.63769,11.38183 z m 6.88281,-1.21582 c -1.16504,2.01221 -4.02441,2.48829 -7.57129,2.48829 -6.72461,0 -12.23144,-5.18897 -12.23144,-12.2837 0,-6.30029 3.54883,-13.39453 12.60156,-13.39453 8.1543,0 8.10156,5.45264 8.10156,0.89893 0,0 0,-7.99414 0,-7.99414 0,-4.12989 -1.6416,-5.34717 -2.91308,-5.71826 -1.85254,-0.63526 -4.23535,-0.7417 -0.42383,-0.7417 0,0 7.09473,-0.15772 7.09473,-0.15772 0.40234,0.019 0.47754,0.10547 0.47754,0.74072 0,0 0,31.23731 0,31.23731 0,2.17187 0.79394,5.50684 4.28906,6.46045 0.31738,0.0527 0.68847,0.26465 0.31738,0.3706 0,0 -7.73047,0.84717 -7.73047,0.84717 -1.11133,0.10645 -1.58789,-0.42383 -2.06543,-2.59472" />
        <path
           inkscape:connector-curvature="0"
           id="path1419"
           style="fill:#231f20;fill-opacity:1;fill-rule:nonzero;stroke:none"
           d="m 316.56934,-488.94043 c 3.33593,0.42334 6.30078,-2.59473 6.30078,-5.55957 0,0 0,-7.20117 0,-7.20117 -14.24317,5.2417 -9.79492,12.54883 -6.30078,12.76074 z m -3.60059,-23.56152 c 4.02441,-1.69336 14.93164,-1.16407 14.93164,3.81201 0,0 0,15.30176 0,15.30176 0,4.18261 4.12891,5.6123 5.29395,2.80566 0.37109,-0.37012 1.00683,-0.10547 0.68847,0.5293 -0.74121,2.96533 -8.04785,3.44238 -10.58886,-0.5293 -14.03125,10.21924 -22.9795,-9.90088 -6.19532,-10.21777 5.24219,-0.79444 5.82422,-3.81201 5.82422,-5.93018 0,-5.24219 -2.7539,-5.71875 -4.39453,-5.71875 -1.74707,0 -3.17676,0.53027 -4.12988,3.22998 -1.48242,5.40039 -9.5835,0.58203 -1.42969,-3.28271 z" />
        <path
           inkscape:connector-curvature="0"
           id="path1421"
           style="fill:#231f20;fill-opacity:1;fill-rule:nonzero;stroke:none"
           d="m 371.58105,-488.88818 c 3.33497,0.42334 6.30079,-2.59375 6.30079,-5.55909 0,0 0,-7.20019 0,-7.20019 -14.24219,5.24121 -9.79493,12.54785 -6.30079,12.75928 z m -3.60058,-23.56104 c 4.02344,-1.69287 14.92969,-1.16357 14.92969,3.81201 0,0 0,15.30127 0,15.30127 0,4.1836 4.12988,5.61328 5.29589,2.80713 0.37012,-0.37158 1.00586,-0.10596 0.6875,0.52979 -0.74023,2.96484 -8.04687,3.44043 -10.58886,-0.52979 -14.0293,10.21826 -22.97852,-9.90185 -6.19434,-10.21875 5.24219,-0.79443 5.82422,-3.8125 5.82422,-5.93115 0,-5.24024 -2.75293,-5.71777 -4.39453,-5.71777 -1.74707,0 -3.17676,0.52978 -4.12988,3.22998 -1.4834,5.40087 -9.58301,0.58203 -1.42969,-3.28272 z" />
        <path
           inkscape:connector-curvature="0"
           id="path1423"
           style="fill:#231f20;fill-opacity:1;fill-rule:nonzero;stroke:none"
           d="m 361.78516,-515.17529 c 0,0 0,-11.85938 0,-11.85938 0,0 5.82519,0 5.82519,0 0,0 0,11.85938 0,11.85938 0,0 -5.82519,0 -5.82519,0 z" />
        <path
           inkscape:connector-curvature="0"
           id="path1425"
           style="fill:#231f20;fill-opacity:1;fill-rule:nonzero;stroke:none"
           d="m 380.5293,-515.17529 c 0,0 0,-11.85938 0,-11.85938 0,0 5.82324,0 5.82324,0 0,0 0,11.85938 0,11.85938 0,0 -5.82324,0 -5.82324,0 z" />
        <path
           inkscape:connector-curvature="0"
           id="path1427"
           style="fill:#231f20;fill-opacity:1;fill-rule:nonzero;stroke:none"
           d="m 373.26074,-524.56982 c 0,0 0.83301,-1.69288 0.83301,-1.69288 0,0 0.8252,1.63086 0.8252,1.63086 0.10449,0.17188 0.1875,0.1587 0.35253,0.0767 0,0 0.70801,-0.35156 0.70801,-0.35156 0,0 -0.46094,2.27881 -0.46094,2.27881 -0.0967,0.44727 0.15821,0.57764 0.4336,0.2749 0,0 1.01269,-1.08056 1.01269,-1.08056 0,0 0.26758,0.6123 0.26758,0.6123 0.0899,0.18555 0.22754,0.15869 0.40625,0.12402 0,0 1.0459,-0.2207 1.0459,-0.2207 0,0 -0.35059,1.32178 -0.35059,1.32178 0,0 -0.007,0.0278 -0.007,0.0278 -0.042,0.17188 -0.12402,0.3169 0.0684,0.39893 0,0 0.37304,0.18603 0.37304,0.18603 0,0 -2.15527,1.82373 -2.15527,1.82373 -0.21973,0.22754 -0.14453,0.29639 -0.0615,0.55029 0,0 0.19824,0.61329 0.19824,0.61329 0,0 -2.00977,-0.36524 -2.00977,-0.36524 -0.24707,-0.0615 -0.41992,-0.0615 -0.42578,0.1377 0,0 0.083,2.30566 0.083,2.30566 0,0 -0.60644,0 -0.60644,0 0,0 0.082,-2.29834 0.082,-2.29834 0,-0.22803 -0.1709,-0.22021 -0.57715,-0.13769 0,0 -1.8584,0.35791 -1.8584,0.35791 0,0 0.24023,-0.61329 0.24023,-0.61329 0.083,-0.23388 0.10352,-0.39257 -0.082,-0.55029 0,0 -2.20312,-1.79638 -2.20312,-1.79638 0,0 0.40527,-0.24805 0.40527,-0.24805 0.11719,-0.0889 0.12598,-0.18555 0.0625,-0.38574 0,0 -0.41211,-1.3418 -0.41211,-1.3418 0,0 1.05957,0.22754 1.05957,0.22754 0.29688,0.0684 0.37891,0 0.45313,-0.16553 0,0 0.29687,-0.60547 0.29687,-0.60547 0,0 1.04688,1.1836 1.04688,1.1836 0.18554,0.22119 0.44726,0.0757 0.36426,-0.24073 0,0 -0.50293,-2.47168 -0.50293,-2.47168 0,0 0.77734,0.44873 0.77734,0.44873 0.12598,0.0757 0.25488,0.0952 0.33105,-0.0483" />
      </g>
    </g>
    <flowRoot
       xml:space="preserve"
       id="flowRoot1461"
       style="font-style:normal;font-weight:normal;font-size:40px;line-height:1.25;font-family:sans-serif;letter-spacing:0px;word-spacing:0px;fill:#000000;fill-opacity:1;stroke:none"
       transform="matrix(0.28975424,0,0,0.28975424,-6.9325832,-15.976796)"><flowRegion
         id="flowRegion1463"><rect
           id="rect1465"
           width="302.64352"
           height="110.43862"
           x="281.42856"
           y="516.80542" /></flowRegion><flowPara
         style="font-style:normal;font-variant:normal;font-weight:normal;font-stretch:normal;font-size:32px;line-height:4;font-family:Helvetica-Normal;-inkscape-font-specification:Helvetica-Normal"
         id="flowPara856">Shared Services</flowPara><flowPara
         style="font-style:normal;font-variant:normal;font-weight:normal;font-stretch:normal;font-size:32px;line-height:4;font-family:Helvetica-Normal;-inkscape-font-specification:Helvetica-Normal"
         id="flowPara872">Canada</flowPara></flowRoot>  </g>
</svg>
